<?xml version="1.0" encoding="UTF-8"?>
<svg xmlns="http://www.w3.org/2000/svg" width="1080" height="1350" viewBox="0 0 1080 1350">
  <g id="alternativbg">
    <rect width="1080" height="1350" style="fill: #9cc0a4;"/>
  </g>
  <g id="skygger">
    <ellipse cx="756.99" cy="973.02" rx="129.72" ry="35.73" style="stroke: #000; stroke-miterlimit: 10; stroke-width: .5px;"/>
    <polygon points="387.56 924.27 351.19 908.5 319.62 884.44 249.73 840.7 138.72 785.03 194.75 765.78 238.04 747.4 395.26 803.94 393.28 888.1 390.03 898.16 387.56 924.27" style="stroke: #000; stroke-miterlimit: 10; stroke-width: .5px;"/>
    <path d="M811.04,1126.01c1.18,12.64,50.08,18.89,106.83,12.33,56.76-6.56,101.58-22.11,100.13-34.72-1.46-12.61-48.65-17.51-105.41-10.95-41.85,4.84-75.09,6.39-90.02,18.44-3.25,2.62-10,.84-11.88,7.4-.73,2.54.04,4.25.35,7.5Z" style="stroke: #000; stroke-miterlimit: 10;"/>
    <ellipse cx="709.95" cy="1057.32" rx="44.2" ry="21.94" style="stroke: #000; stroke-miterlimit: 10;"/>
  </g>
  <g id="talerstol">
    <g id="_talerstol_" data-name="&amp;lt;talerstol&amp;gt;">
      <path d="M390.67,887.09c-.03.92-.8,1.65-1.73,1.62-1.54-.05,0-.86,0,0l-3.65,33.63c0,2.25,1.79,4.09,4.04,4.16l56.31,1.63,266.43-1.87c2.27-.03,2.48-3.78,2.48-6.05l-2.04-30.68c0-.8,1.8.01,2.3-.69l11.27-23.12c.2-.29.35-.63.33-.98-.11-1.86,7.2-13.22,7.2-14.47l.09-246.36-.21-146.63c0-1.32,2.66-4.22.19-4.21l-306.48,1.85c-.41,0-3.5,2.72-3.86,2.91l-29.93,14.28c-.8.43-2.04,4.34-2.04,5.25,0,0,.36,380.97-.7,409.76Z" style="fill: #904a14;"/>
      <polygon points="390.53 888.72 387.07 925.38 713.46 925.16 733.62 884.72 734.86 850.33 712.82 890.55 390.53 888.72" style="fill: #f5c997;"/>
      <polygon points="391.92 888.9 391.92 473.86 708.61 473.86 711.91 891.12 391.92 888.9" style="fill: none; stroke: #000; stroke-miterlimit: 10; stroke-width: 4px;"/>
      <polygon points="390.53 888.72 387.07 925.38 713.7 926.87 711.91 891.12 390.53 888.72" style="fill: none; stroke: #000; stroke-miterlimit: 10; stroke-width: 4px;"/>
      <text transform="translate(414.15 528.2)" style="fill: #fde6a7; font-family: BalooBhaijaan-Regular, &apos;Baloo Bhaijaan&apos;; font-size: 22.37px; stroke: #000; stroke-miterlimit: 10; stroke-width: .25px;"><tspan x="0" y="0" style="letter-spacing: 0em;">B</tspan><tspan x="13.78" y="0">es</tspan><tspan x="37.07" y="0" style="letter-spacing: 0em;">k</tspan><tspan x="49.53" y="0">æ</tspan><tspan x="68.17" y="0" style="letter-spacing: 0em;">f</tspan><tspan x="77.67" y="0">tigel</tspan><tspan x="124.16" y="0" style="letter-spacing: 0em;">s</tspan><tspan x="135.28" y="0">esminis</tspan><tspan x="214.16" y="0" style="letter-spacing: 0em;">t</tspan><tspan x="222.97" y="0">eriet</tspan></text>
      <path d="M711.75,891.96s22.64-40.66,22.45-43.69-.49-392.3-.49-392.3l-25.11,17.9" style="fill: none; stroke: #000; stroke-miterlimit: 10; stroke-width: 4px;"/>
      <polyline points="735.7 453.98 426.15 455.41 390.72 473.44" style="fill: none; stroke: #000; stroke-miterlimit: 10; stroke-width: 4px;"/>
      <polyline points="714.07 928.12 734.29 883.23 734.2 848.26" style="fill: none; stroke: #000; stroke-miterlimit: 10; stroke-width: 4px;"/>
      <path d="M690.19,464.01c-2.34,4.99-33.07,4.99-62.93,4.99s-63.11-1.23-57.18-5.41c12.81-9.03,36.22-4.89,66.08-4.89s54.93,3.39,54.03,5.31Z" style="stroke: #000; stroke-miterlimit: 10;"/>
      <polygon points="544.39 566.97 546.49 563.27 555.64 558.02 566.59 557.24 576.82 562.54 582.6 568.82 588.61 580.41 588.63 589.54 586.99 601.95 582.62 610.85 574.77 617.25 565.76 619.7 557.28 619.56 549.17 616.12 544.57 612.4 542.51 610.88 546.41 605.1 549.46 596.11 550.15 585.59 549.05 574.18 544.39 566.97" style="fill: #fff;"/>
      <path d="M550.15,585.59c0,17.79-10.19,33.17-23.72,33.91-19.19,1.05-25.88-15.44-23.83-33.11,2.74-23.62,14.5-29.18,24.83-29.18,12.14,0,22.73,10.59,22.73,28.38Z" style="fill: #fff; stroke: #000; stroke-miterlimit: 10; stroke-width: 3px;"/>
      <path d="M542.89,610.19c3.38,5.23,9.01,8.39,18.05,9.37,15.09,1.65,27.69-11.48,27.69-30.02s-12.04-32.3-26.55-32.3c-8.3,0-14.05,3.41-17.8,8.68" style="fill: none; stroke: #000; stroke-miterlimit: 10; stroke-width: 3px;"/>
      <ellipse cx="531.78" cy="573.48" rx="5.21" ry="4.09" transform="translate(-189.67 875.43) rotate(-69.87)"/>
      <ellipse cx="570.84" cy="573.48" rx="5.21" ry="4.09" transform="translate(-164.05 912.11) rotate(-69.87)"/>
      <path d="M523.07,627.35c9.11,7.35,2.05,14.73-.97,16.02" style="fill: none; stroke: #000; stroke-linecap: round; stroke-miterlimit: 10; stroke-width: 3px;"/>
      <path d="M556.28,628.07c-6.63,7.29-4.28,16.26.5,18.33" style="fill: none; stroke: #000; stroke-linecap: round; stroke-miterlimit: 10; stroke-width: 3px;"/>
      <path d="M527.26,637.24c9.91-3.17,18.61-2.17,24.95,0" style="fill: none; stroke: #000; stroke-miterlimit: 10; stroke-width: 3px;"/>
    </g>
  </g>
  <g id="mikrofon">
    <g id="_mikrofon_" data-name="&amp;lt;mikrofon&amp;gt;">
      <polyline points="157.34 866.25 133.45 897.86 119.09 917.48 117.2 920.86 116.75 922.48 117.07 923.84 123.02 929.04 135.28 938.18 147.33 948.98 155.07 956.29 155.59 956.29 163.18 944.67 177.98 921.83 181.37 924.95 195.1 939.26 208.66 952.71 212.85 956.68 188.43 988.99 189.4 989.94 191.92 991.63 194.46 992.26 197.33 992.26 203.81 991.79 212.85 991.34 221.35 991.27 230.84 991.86 239.9 993.05 246.12 994.01 250.33 994.57 252.2 994.57 253.01 994.08 254 992.54 256.93 986.48 259.77 981.49 266.28 971.09 273.49 959.85 280.9 948.18 285.63 940.95 287.89 937.81 289.61 935.02 290.14 933.19 289.58 931.49 287.51 929.45 282.96 925.18 277.01 919.42 262.91 905.17 224.29 865.6 216.88 859.15 213.43 857.26 210.66 856.89 200.84 858.53 175.98 862.84 157.34 866.25" style="fill: #e6edf2;"/>
      <polygon points="188.43 988.99 194.23 981.21 204.02 968.22 209.98 960.36 212.92 956.75 215.77 959.4 226.91 969.39 238.44 979.4 244.19 984.37 249.13 988.86 251.34 990.98 252.06 992.32 252.35 993.54 252.28 994.51 250.42 994.75 245.81 994.15 240.24 993.24 234.11 992.24 227.94 991.61 217.01 991.17 210.81 991.41 202 991.92 196.48 992.38 194.63 992.29 191.45 991.7 189.41 990.18 188.43 988.99" style="fill: #a0a1a9;"/>
      <polygon points="155.65 956.83 164.92 942.82 177.51 922.89 177.94 922.24 176.33 920.77 171.95 917.49 169.08 916.62 166.24 916.55 161.72 917.58 155.65 919.02 150.17 919.85 139.43 920.12 127.81 919.86 121.07 919.57 118.81 919.8 117.35 920.36 116.75 921.97 116.75 923.75 118.38 925.45 124.67 930.22 131.6 934.99 138.19 940.1 144.63 945.76 152.15 952.89 155.65 956.83" style="fill: #a0a1a9;"/>
      <polygon points="172.42 917.64 215.11 857.88 212.93 856.9 210.06 856.68 198.06 858.61 157.2 866.01 142.22 885.86 123.72 910.32 117.4 919.8 119.44 919.45 122.51 919.16 130.35 919.69 140.76 919.87 150.77 919.55 157.55 918.26 163.43 916.9 167.82 916.34 170.55 916.56 172.42 917.64" style="fill: #d3d6db;"/>
      <polygon points="187.47 860.83 187.33 859.89 189.06 855.42 194.73 843.43 200.03 835.54 206.42 828.36 213.27 821.87 221.06 815.7 227.27 811.82 233.35 808.96 255.25 803.4 272.95 805.36 283.12 819.72 285.84 823.31 289.51 829.88 291.64 835.44 292.7 839.2 293.48 842.73 294.6 849.1 294.65 855.83 294.31 861.52 292.78 871.26 290.8 879.08 288.71 886.75 286.05 893.06 283 899.13 279.1 905.41 276.42 909.08 272.04 914.43 256.02 898.15 242.42 884.2 225.95 867.25 218.43 860.21 213.93 857.28 211.5 856.88 207.49 857.23 187.47 860.83" style="fill: #d84545;"/>
      <path d="M284.17,821.04c7.01,8.84,8.81,19.21,9.43,22.34,1.87,9.34.89,18.22-.06,23.83-1.08,6.31-3.21,15.56-4.94,19.83-3.22,8-6.81,16.19-16.43,27.22" style="fill: none; stroke: #000; stroke-miterlimit: 10;"/>
      <path d="M243.58,846.52l-1.1-1.5-.12-2.54,1.83-2.86,4.86-2.64,6.04-1.79,4.85.13,2.7-.13,8.02-2.11,6.58-1.74,4.11-.98,2.82-.67,1.09-.7.7-1.04.77-.86,1.33-.12,6.33.56s6.28.76,8.25,1.48c1.11.41,3.18,1.64,4.11,2.38.78.63,2.87,2.79,2.87,2.79l3.12,4.17,2.39,4.45,1.46,3.28,1.22,3.38.98,4.93.91,6.7.58,8.55v7.81s-.66,6.97-.66,6.97l-.97,5.51-1.51,5.62-2.05,4.89-2.13,3.27-2.42,2.9-2.59,2.65-3.57,2.75-3.15,1.89-3.01,1.22-3.58.87-4.25.4-4.9-.19-4.91-1.06-4.05-1.63-3.84-2.53-3.57-4.07-2.34-4.29-.58-6.64.3-6.64.92-7.08,1.19-8.14.32-6.08-.32-5.98-1.09-5.36-1.77-3.94-2.88-2.68-3.63-2.28-3.24-.46-4.4.28-3.21-.25-2.74-.3-2.08-.57Z" style="fill: #db9797;"/>
      <path d="M187.08,860.78c3.28-12.39,12-24.45,15.24-28.05,7.35-8.19,19.15-19.22,29.93-23.18" style="fill: none; stroke: #000; stroke-miterlimit: 10; stroke-width: 2px;"/>
      <path d="M259.24,835.32s-3.76,0-7.09.72c-1.94.42-5.8,2.13-7.42,3.28-.87.62-1.94,2.18-2.36,3.16-.62,1.43.25,3.08.85,3.77.73.85,3.14,1.26,4.25,1.42,1.83.26,5.53-.22,7.37-.14,1.29.05,3.9.39,5.11.85.64.24,1.47.72,2.31,1.3,1.39.96,2.81,2.19,3.51,3.09,1.3,1.7,2.44,5.98,2.84,8.08.56,2.96.35,9.05.14,12.05-.24,3.54-1.58,10.52-1.99,14.04-.32,2.78-.75,8.42-.43,11.2.95,8.18,4.65,12.77,11.49,16.02,1.95.93,6.22,1.95,8.37,2.13,12.59,1.01,17.71-4.01,20.14-5.67s6.22-6.09,7.8-8.51c4.72-7.21,5.9-20.06,6.1-23.54.21-3.68,1.19-15.33-2.4-29.11-.95-3.64-4.06-9.65-6.11-12.8-1.04-1.6-5.2-5.84-6.88-6.73-4.64-2.45-11.74-2.38-15.66-2.83-.6-.07-1.88-.29-2.41,0-.64.35-1.23,1.87-1.84,2.27-.77.51-2.65.77-3.55.99-1.91.49-5.76,1.33-7.66,1.84-2.59.7-7.72,2.33-10.35,2.84-1.33.26-3.08.3-4.43.26-.58-.02-2.68-.07-3.22-.26-.62-.21-1.76-.93-2.41-.99-.91-.09-2.69.54-3.55.85-1.95.72-5.56,2.81-7.37,3.83-2.47,1.39-7.26,4.42-9.64,5.96-2.76,1.78-15.81,12.43-15.81,12.43,0,0,17.01-3.77,20.38-4.52,2.93-.66,8.82-1.79,11.75-2.42,1.27-.27,3.81-.86,5.09-1.04,1.13-.16,3.32-.28,4.56-.34,1.41-.06,3.01.04,5.58,2.44" style="fill: none; stroke: #000; stroke-miterlimit: 10; stroke-width: 2px;"/>
      <path d="M267.27,811.1c0,10.62-8.97,18.77-18.44,18.77s-16.64-7.98-16.64-18.6,7.03-19.41,16.5-19.63c10.74-.25,18.58,8.84,18.58,19.46Z" style="fill: #fff; stroke: #000; stroke-miterlimit: 10; stroke-width: 2px;"/>
      <path d="M290.94,806.55c0,11.44-6.47,16.76-15.98,16.76-5.67,0-9.48-4.25-9.48-4.25,0,0,3.01-5.81.95-13.88-1.3-5.09-7.52-10.56-7.52-10.56,0,0,3.27-8.14,12.06-8.7,12.24-.78,19.97,9.19,19.97,20.63Z" style="fill: #fff; stroke: #000; stroke-miterlimit: 10; stroke-width: 2px;"/>
      <path d="M249.73,813.06c-3.04,4.42-3.15,11.61,1.87,14.41,3.5,1.95,8.78-.07,11.57-4.66,1.98-3.26,6.89-11.25.56-15.43-3.01-1.99-8.39-2.48-14,5.67Z"/>
      <path d="M282,810.29c2.49,6.9,1.45,10.86-3.55,12.76-3.64,1.39-11.81-.77-12.58-3.83-.27-1.05,2.01-2.72,1-11.95-.17-1.57,0-2.47,1.97-3.29,3.59-1.49,10.76-.37,13.17,6.3Z"/>
      <path d="M217.42,856.57l11.11-9.07,6.59-4.35,4.36-2.71,4.2-2.45,3.46-2.13,3.77-1.35,2.38-.45,2.41.99-3.93.96-4.85,1.74-2.37,1.86s-1.44,1.42-1.75,2.05c-.21.42-.48,1.94-.48,1.94l.4,1.71.5.94,1.26.74,1.9.5,2.58.26,2.66-.11,3.56-.1,2.66.32,2.11.51v.47l-4.32.21-4.02.61-7.05,1.29-9.67,2.01-7.24,1.87-6.24,1.51-4.17.74-.75.18.92-.68Z"/>
      <path d="M212.62,956.85l-24.19,32.13s1.7,1.74,2.39,2.16c.44.27,1.43.61,1.93.74.66.16,1.99.47,2.67.51,1.32.07,3.97-.26,5.29-.37,3.27-.26,9.82-.68,13.1-.69,4.59-.02,13.78.2,18.34.64,3.66.35,10.92,1.63,14.57,2.11,1.17.15,3.52.6,4.69.48.42-.04,1.29-.21,1.6-.49.26-.24.48-.96.61-1.29.32-.76,1.08-2.23,1.48-2.95,1.06-1.95,3.17-5.84,4.3-7.74,3.12-5.23,9.74-15.46,13.03-20.59,3.07-4.79,9.11-14.42,12.23-19.18,1.21-1.84,4.01-5.31,4.94-7.3.2-.43.55-1.36.52-1.83-.02-.45-.3-1.33-.56-1.7-.37-.54-8.05-7.58-10.04-9.55-5.34-5.28-15.88-15.98-21.13-21.34-4.57-4.67-13.68-14.06-18.26-18.72-5.16-5.24-15.19-16.04-20.75-20.86-.84-.73-2.59-2.13-3.56-2.66-.85-.46-2.65-1.31-3.62-1.44-1.54-.19-4.64.27-6.17.53-5.86.99-17.54,3.21-23.39,4.26-5.98,1.08-18.01,2.83-23.93,4.15-.35.08-1.15.11-1.38.38-4.07,4.87-15.35,20.51-20.55,27.29-4.92,6.41-14.97,19.13-19.03,26.11-.46.79-1.19,2.64-1.01,3.54.15.76,1.45,1.83,2.02,2.36,3.8,3.55,12.5,9.33,16.51,12.63,2.88,2.37,8.37,7.42,11.12,9.94,2.34,2.15,9.25,8.71,9.25,8.71l22.49-34.91" style="fill: none; stroke: #000; stroke-miterlimit: 10; stroke-width: 2px;"/>
      <path d="M116.75,923.19s.14-1.82.45-2.33c.25-.41,1.15-.92,1.61-1.06,1.6-.49,5.02-.05,6.69,0,3.22.1,7.99.2,11.21.31,2.44.08,11.78-.09,14.21-.31,5.03-.47,12.77-2.86,14.37-3.05,3.77-.45,5.65-.03,7.27,1.14,2.15,1.54,6.21,4.76,8.15,6.73,4.71,4.77,14.01,14.4,18.72,19.17,3.64,3.68,11.15,10.81,14.94,14.34,4.27,3.97,12.99,11.72,17.38,15.55,2.91,2.54,8.82,7.53,11.73,10.08,1.64,1.44,5.96,5.32,6.42,5.9.3.37,1.56,1.44,2.12,2.88.15.4.17,1.26.17,1.69" style="fill: none; stroke: #000; stroke-miterlimit: 10; stroke-width: 2px;"/>
      <g>
        <text transform="translate(194.37 904.13) rotate(42.15)" style="fill: #ffe22f; font-family: Modak, Modak; font-size: 33.56px; stroke: #000; stroke-miterlimit: 10;"><tspan x="0" y="0">N</tspan></text>
        <text transform="translate(209.64 917.95) rotate(42.15)" style="fill: #ffe22f; font-family: Modak, Modak; font-size: 33.56px; stroke: #000; stroke-miterlimit: 10;"><tspan x="0" y="0">E</tspan></text>
        <text transform="translate(223.51 930.5) rotate(42.15)" style="fill: #ffe22f; font-family: Modak, Modak; font-size: 33.56px; stroke: #000; stroke-miterlimit: 10;"><tspan x="0" y="0">W</tspan></text>
        <text transform="translate(245.34 950.26) rotate(42.15)" style="fill: #ffe22f; font-family: Modak, Modak; font-size: 33.56px; stroke: #000; stroke-miterlimit: 10;"><tspan x="0" y="0">S</tspan></text>
      </g>
      <path d="M189.79,987.07s-23.31,32.42-30.14,41.28c-16.38,21.25-63.09,78.7-67.48,83.46-2.36,2.56-8.78,10.62-11.38,12.73-2.49,2.02-3.6,1.52-5.23,1.5-1.86-.02-6.3-2.54-8.08-3.86-1.55-1.15-4.28-3.69-4.95-5.42-.59-1.52-1.44-2.38-.41-5.43s6.39-11.99,7.97-15.1c2.94-5.78,40.52-69.57,54.74-92.33,5.92-9.48,34.43-52.69,34.43-52.69" style="fill: none; stroke: #000; stroke-miterlimit: 10;"/>
      <polygon points="212.62 956.85 190.7 934.84 179.7 923.64 177.94 922.24 166.98 939.24 147.34 969.33 126.59 1001.14 113.13 1023.07 99.57 1045.75 84.11 1071.92 73.02 1090.99 66.53 1102.67 62.92 1109.45 61.68 1113.22 61.86 1115.13 63.1 1117.8 66.48 1121.38 70.33 1123.97 73.71 1125.59 75.57 1126.04 78.23 1125.98 80.8 1124.54 88.07 1116.59 100.13 1102.34 116.81 1081.95 133.3 1061.56 146.21 1045.44 161.75 1025.59 177.07 1004.69 186.32 991.89 196.36 978.45 212.62 956.85"/>
    </g>
  </g>
  <g id="hamster">
    <g id="_hamsterhjul_" data-name="&amp;lt;hamsterhjul&amp;gt;">
      <polygon points="862.05 908.95 855.78 909.54 841.7 914.52 830.5 920.15 823.93 926.56 821.02 926.56 819.37 928.16 818.05 930.64 817.67 933.86 815.21 935.15 809.44 940.24 808.13 944.06 806.66 950.88 807.55 956.4 814.09 967.17 821.58 974.33 833.02 981.18 844.2 987.85 849.76 992.24 856.13 998.24 861.49 1001.73 868.42 1003.73 877.74 1004.39 884.07 1003.13 888.41 1000.56 893.72 996.77 917.74 971.6 921.72 967.31 921.4 959.87 922.11 960.13 924.14 962.09 928.33 963.31 933.36 962.42 936.8 959.82 940.43 954.34 942.63 948.86 943.63 942.62 943.88 936.47 946.63 930.85 950.25 921.38 953.39 922.45 957.61 923.74 961.71 923.25 965.27 922.43 966.97 920.24 967.93 916.97 967.47 914.7 965.74 912.93 960.96 910.62 955.08 907.43 951.43 904.32 948.41 899.16 944.42 890.73 939.53 882.9 932.41 876.22 925.78 870.41 922.41 867.4 921.46 860.35 920.72 855.65 919.82 853.17 917.29 852.17 913.69 852.05 911.16 853.5 909.47 856.17 908.8 859.87 909.3 862.93 911.56 867 908.99 868.65 903.28 870.85 893.61 872.85 886.72 874.91 879.2 878.08 873.47 877.29 868.98 877.23 863.26 879.65 858.9 883.26 856.98 886.42 855.67 891.45 856.86 896.92 859.01 902.82 860.77 906.82 862.05 908.95" style="fill: #fff;"/>
      <path d="M848.61,921.53c-2.84,3.14-13.97,7.64-18.21,7.72-1,.02-3.95-.58-3.95-.58l-2.51-2.11,2.24-3.35,13.72-8.1,15.89-5.57s-1.36,5.57-7.18,11.98Z" style="fill: #fcb547;"/>
      <path d="M919.99,969.13s-8.24,1.75-10.45,2.85c-2.61,1.29-7.71,2.5-12.63,6.47-2.44,1.96-6.21,5.05-7.84,9.41-2.82,7.49-.66,12.72-.66,12.72l6.28-5.19,9.79-10.18,15.52-16.07Z" style="fill: #fcb547;"/>
      <path d="M919.02,896.92s-13.56,15.4-32.46,8.03c-8.58-3.35-9.22,5.03-17.09,1.78-6.53-2.69-6.88-4.1-8.37-6.35-1.93-2.92-2.49-6.89-2.65-11.24-.09-2.42,1-4.79,1.72-6.11.67-1.22,3.65-3.32,3.65-3.32l5.64-2.56,6.94.53,4.95-.53,8.21-3,12.48-2.99,6.95-2.5,3.11-1.84-1.76-2.24-1.8-4.56.81-4.03,3.09-3.29,4.32-.83,3.56,1.25,1.03,6.32,1.07,7.95.99,1.91,4.01,4.01,3.57,2.38,5.17,4.47,2.49,2.24,3.14,4.55,3.48,6.18,2.46,5.55,2.47,4.12,3.1,3.42,4.44,2.82,6.77,3.43,1.8.98,1.11,2.12v2.67l-1.57,3.07-3.48,1.76-4.41.39-2.26-.22-5.46-1.87-1.49,4.04-5.13,11.61-.21,3.81-.33,6.4-1.5,5.17-2,3.33s-2.65,2.38-4.04,2.88c-12.47,4.45-20.48-7.88-21.92-15.98-2.69-15.14-5.86-9.05-7.71-26.39-1.07-9.99,13.08-19.32,13.08-19.32Z" style="fill: #fcb547;"/>
      <path d="M935.07,877.71s-11.82,12.86-13.13,16.15c-.51,1.29,1.23,2.94,2.16,3.04,3.31.33,19.99-7.77,19.99-7.77l-9.02-11.42Z" style="fill: #c78d4d;"/>
      <path d="M864.76,912.32s-5.44-8.59-5.97-9.96c-.88-2.24-2.6-6.78-2.82-9.49-.39-4.83,1.57-7.55,2.15-8.52,1.87-3.18,8.78-7.78,13.59-7.31,1.03.1,6.05,1.05,8.03.67,5.35-1.04,9.18-4.59,20.88-6.29,5.42-.79,11.11-4.2,11.11-4.2" style="fill: none; stroke: #000; stroke-linecap: round; stroke-miterlimit: 10; stroke-width: 2px;"/>
      <path d="M823.93,926.56c3.11-4.46,11.09-8.77,15.16-10.7,17.09-8.1,23.68-6.48,23.68-6.48l-2.33-4.04" style="fill: none; stroke: #000; stroke-linecap: round; stroke-miterlimit: 10; stroke-width: 2px;"/>
      <path d="M911.72,867.22s-3.94-4.87-2.52-9.44c.27-.86.94-2.55,1.48-3.27.83-1.1,2.41-2.24,4.07-2.53.98-.17,3.07-.15,3.95.3,1.31.68,1.71,1.8,2.02,2.56.44,1.08,1.13,5.01,1.28,6.17.1.74.47,5.46,1.23,7.09.33.71,1.5,1.82,2.06,2.37,3.53,3.4,11.25,8.54,14.24,12.43,7,9.12,8.15,15.43,11.46,20.2.99,1.44,3.67,3.79,5.14,4.72,1.55.98,4.93,2.42,6.57,3.24.93.46,2.89,1.29,3.65,1.99,1.17,1.07,1.59,2.86,1.57,3.92-.02.97-.51,3-1.19,3.69-1.1,1.12-1.86,2.04-3.39,2.39-1.02.23-2.88,1.02-6.5.79-1.63-.1-6.27-1.9-6.27-1.9,0,0-3.89,9.23-6.24,14.53-1.32,2.97,1.47,11.77-5.02,20.45-9.32,12.46-17.39,3.81-17.39,3.81,0,0,.83,5.15-1.93,8.4-4.31,5.06-23.26,23.27-25.68,26.31-6.38,8.01-14.4,10.77-27.98,7.89-11.23-2.39-13.41-10.5-23.88-16.54-2.64-1.52-18.24-10.8-18.81-11.46-.82-.94-12.19-7.46-16.43-22.35-.67-2.35.65-9.34,1.86-11.46,3.51-6.14,9.36-7.95,9.36-7.95" style="fill: none; stroke: #000; stroke-miterlimit: 10; stroke-width: 2px;"/>
      <path d="M901.49,961.52c-1.54-.89-4.16-3.56-6.19-5.18-1.58-1.26-4.9-3.49-4.48-6.17.21-1.36,2.17-3.52,6.46-2.91,7.03.99,13.15,7.13,13.15,7.13" style="fill: none; stroke: #000; stroke-linecap: round; stroke-miterlimit: 10; stroke-width: 2px;"/>
      <path d="M858.89,931.48c4.6,5.43,12.72,12.67,18.84,11.27,1.87-.43,3.04-2.15,1.79-5.55-.73-1.98-7.55-8.27-8.68-9.84" style="fill: none; stroke: #000; stroke-linecap: round; stroke-miterlimit: 10; stroke-width: 2px;"/>
      <path d="M855.78,979.88s1.53-2.7,2.43-3.95c.81-1.12,3.95-4.84,7.15-1.23.66.74.84,2.18.76,3.17-.11,1.44-.16,4.76-5.52,7.65" style="fill: none; stroke: #000; stroke-linecap: round; stroke-miterlimit: 10; stroke-width: 2px;"/>
      <path d="M890.61,888.46c-.17,3.13.88,6.67,2.07,8.43.83,1.22,3.29,3.09,4.67,3.63,1.6.62,3.73,1.26,6.75,1.26" style="fill: none; stroke: #000; stroke-linecap: round; stroke-miterlimit: 10; stroke-width: 2px;"/>
      <path d="M911.72,909.01c0,1.74,1.26,5.1,2.09,6.63.8,1.48,2.89,4.24,4.26,5.21,1.24.87,4.98,3.37,10.19,2.4" style="fill: none; stroke: #000; stroke-linecap: round; stroke-miterlimit: 10; stroke-width: 2px;"/>
      <line x1="890.61" y1="889.76" x2="887.3" y2="888.04" style="fill: none; stroke: #000; stroke-linecap: round; stroke-miterlimit: 10;"/>
      <line x1="890.75" y1="891.81" x2="887.3" y2="891.09" style="fill: none; stroke: #000; stroke-linecap: round; stroke-miterlimit: 10;"/>
      <line x1="891.83" y1="893.95" x2="887.3" y2="894.27" style="fill: none; stroke: #000; stroke-linecap: round; stroke-miterlimit: 10;"/>
      <line x1="892.41" y1="895.95" x2="888.46" y2="897.89" style="fill: none; stroke: #000; stroke-linecap: round; stroke-miterlimit: 10;"/>
      <line x1="893.97" y1="897.89" x2="891.23" y2="901.07" style="fill: none; stroke: #000; stroke-linecap: round; stroke-miterlimit: 10;"/>
      <line x1="896.02" y1="899.48" x2="893.97" y2="903.1" style="fill: none; stroke: #000; stroke-linecap: round; stroke-miterlimit: 10;"/>
      <line x1="898.3" y1="900.7" x2="897.49" y2="904.95" style="fill: none; stroke: #000; stroke-linecap: round; stroke-miterlimit: 10;"/>
      <line x1="900.62" y1="901.13" x2="900.62" y2="905.71" style="fill: none; stroke: #000; stroke-linecap: round; stroke-miterlimit: 10;"/>
      <line x1="902.72" y1="901.52" x2="903.34" y2="904.95" style="fill: none; stroke: #000; stroke-linecap: round; stroke-miterlimit: 10;"/>
      <line x1="912.16" y1="910.4" x2="908.36" y2="909.84" style="fill: none; stroke: #000; stroke-linecap: round; stroke-miterlimit: 10;"/>
      <line x1="912.98" y1="913" x2="907.79" y2="913" style="fill: none; stroke: #000; stroke-linecap: round; stroke-miterlimit: 10;"/>
      <line x1="913.64" y1="915.11" x2="908.99" y2="916.9" style="fill: none; stroke: #000; stroke-linecap: round; stroke-miterlimit: 10;"/>
      <line x1="915.08" y1="917.2" x2="911.03" y2="920.84" style="fill: none; stroke: #000; stroke-linecap: round; stroke-miterlimit: 10;"/>
      <line x1="916.78" y1="919.27" x2="914.01" y2="923.64" style="fill: none; stroke: #000; stroke-linecap: round; stroke-miterlimit: 10;"/>
      <line x1="919.02" y1="921.26" x2="917.38" y2="925.1" style="fill: none; stroke: #000; stroke-linecap: round; stroke-miterlimit: 10;"/>
      <line x1="921.42" y1="922.29" x2="920.79" y2="926.68" style="fill: none; stroke: #000; stroke-linecap: round; stroke-miterlimit: 10;"/>
      <line x1="924.25" y1="923.25" x2="924.25" y2="927.58" style="fill: none; stroke: #000; stroke-linecap: round; stroke-miterlimit: 10;"/>
      <line x1="927.23" y1="923.25" x2="927.68" y2="927.58" style="fill: none; stroke: #000; stroke-linecap: round; stroke-miterlimit: 10;"/>
      <polygon points="893.32 918.66 892.78 919.17 892.78 920.54 893.62 922.44 895.08 923.95 896.39 924.35 897.33 924.02 897.77 923.06 897.52 920.98 896.41 919.43 894.57 918.89 893.32 918.66"/>
      <path d="M894.38,916c.89,1.02,2.31,3.48,2.31,3.48,0,0,.95,1.85,1.06,2.52.08.46-.09,1.45-.36,1.83-.19.27-.88.53-1.2.51-.55-.03-1.45-.83-1.84-1.22-.59-.59-1.39-2.13-1.56-2.95-.07-.34.11-1.17.42-1.3.83-.36,1.91.25,2.33.39s1.43.51,1.43.91" style="fill: none; stroke: #000; stroke-linecap: round; stroke-miterlimit: 10; stroke-width: 2px;"/>
      <path d="M818.45,938.47s-.5-4.72-.39-6.33c.1-1.44.86-6.5,5.87-5.59,1.03.19,2.02,1.25,2.51,2.11.72,1.25,2.33,4.37-.95,10.17" style="fill: none; stroke: #000; stroke-linecap: round; stroke-miterlimit: 10; stroke-width: 2px;"/>
      <path d="M862.39,801.31c21.25,8.12,39.67,27.35,50.7,51.38" style="fill: none; stroke: #000; stroke-miterlimit: 10; stroke-width: 3px;"/>
      <path d="M964.44,922.33c-6.78,43.59-38.7,82.1-88.21,82.1s-85.52-44.93-85.52-99.49c0-48.75,30.98-101.28,90.64-106.87" style="fill: none; stroke: #000; stroke-miterlimit: 10; stroke-width: 3px;"/>
      <path d="M965.76,912.57c.73-4.15,1.21-5.08,1.21-7.92.14-54.56-29.08-95.96-84.04-106.31-5.92-1.11-20.65-1.97-26.9-1.97-10.08,0-15.76.41-21.11.98,0,0,0,0,0,0-46.47,4.62-80.37,52.02-80.37,104.05s37.06,103.05,109.9,101.94" style="fill: none; stroke: #000; stroke-miterlimit: 10; stroke-width: 3px;"/>
      <line x1="832.42" y1="816.09" x2="792.75" y2="816.31" style="fill: none; stroke: #000; stroke-miterlimit: 10;"/>
      <line x1="813.83" y1="835.38" x2="775.18" y2="834.87" style="fill: none; stroke: #000; stroke-miterlimit: 10;"/>
      <line x1="797.74" y1="865.13" x2="760.77" y2="864.01" style="fill: none; stroke: #000; stroke-miterlimit: 10;"/>
      <line x1="810.05" y1="840.7" x2="772.18" y2="840.7" style="fill: none; stroke: #000; stroke-miterlimit: 10;"/>
      <line x1="796" y1="870.29" x2="759.12" y2="869.4" style="fill: none; stroke: #000; stroke-miterlimit: 10;"/>
      <line x1="791.83" y1="888.9" x2="755.5" y2="887.3" style="fill: none; stroke: #000; stroke-miterlimit: 10;"/>
      <line x1="754.99" y1="912.2" x2="791.11" y2="915.11" style="fill: none; stroke: #000; stroke-miterlimit: 10;"/>
      <line x1="793.49" y1="931.11" x2="756.99" y2="927.38" style="fill: none; stroke: #000; stroke-miterlimit: 10;"/>
      <line x1="804.25" y1="960.11" x2="768.14" y2="954.41" style="fill: none; stroke: #000; stroke-miterlimit: 10;"/>
      <line x1="807.82" y1="966.09" x2="772.24" y2="960.93" style="fill: none; stroke: #000; stroke-miterlimit: 10;"/>
      <line x1="815.84" y1="976.75" x2="781.09" y2="971.91" style="fill: none; stroke: #000; stroke-miterlimit: 10;"/>
      <line x1="822.63" y1="983.7" x2="787.25" y2="977.88" style="fill: none; stroke: #000; stroke-miterlimit: 10;"/>
      <line x1="924" y1="814.7" x2="884.74" y2="814.7" style="fill: none; stroke: #000; stroke-miterlimit: 10;"/>
      <line x1="889.56" y1="819.04" x2="929.94" y2="819.04" style="fill: none; stroke: #000; stroke-miterlimit: 10;"/>
      <line x1="906.73" y1="840.7" x2="949.88" y2="840.7" style="fill: none; stroke: #000; stroke-miterlimit: 10;"/>
      <line x1="909.75" y1="845.99" x2="953.17" y2="845.99" style="fill: none; stroke: #000; stroke-miterlimit: 10;"/>
      <line x1="962.84" y1="868.67" x2="923.23" y2="868.11" style="fill: none; stroke: #000; stroke-miterlimit: 10;"/>
      <line x1="964.49" y1="874.82" x2="929.94" y2="874.39" style="fill: none; stroke: #000; stroke-miterlimit: 10;"/>
      <line x1="966.97" y1="888.9" x2="943.03" y2="887.96" style="fill: none; stroke: #000; stroke-miterlimit: 10;"/>
      <line x1="962.33" y1="934.34" x2="946" y2="932.66" style="fill: none; stroke: #000; stroke-miterlimit: 10;"/>
      <line x1="943.63" y1="937.89" x2="961.2" y2="940.01" style="fill: none; stroke: #000; stroke-miterlimit: 10;"/>
      <line x1="951.81" y1="961.27" x2="937.45" y2="959.15" style="fill: none; stroke: #000; stroke-miterlimit: 10;"/>
      <line x1="947.95" y1="967" x2="931.2" y2="963.31" style="fill: none; stroke: #000; stroke-miterlimit: 10;"/>
      <line x1="942.92" y1="973.36" x2="919.99" y2="969.13" style="fill: none; stroke: #000; stroke-miterlimit: 10;"/>
      <line x1="915.08" y1="974.36" x2="938.49" y2="978.18" style="fill: none; stroke: #000; stroke-miterlimit: 10;"/>
      <path d="M809.46,992.45s-20.27,17.88-26.47,24.41c-.61.64-3.35,3.69-1.24,5.84.65.66,2.08,1.98,2.97,2.23,3.1.88,25.84.07,25.84.07" style="fill: none; stroke: #000; stroke-miterlimit: 10; stroke-width: 4px;"/>
      <line x1="818.91" y1="996.36" x2="786.2" y2="1025.14" style="fill: none; stroke: #000; stroke-miterlimit: 10; stroke-width: 3px;"/>
      <polyline points="797.46 1015.23 917.84 1014.27 902.72 1000.4" style="fill: none; stroke: #000; stroke-miterlimit: 10; stroke-width: 4px;"/>
      <path d="M904.68,1001.26l20.67,19.48s-92.91.25-110.44,1.29c-1.54.09-4.32,1.34-5.4,4.22-1.09,2.91,1.23,6.9,3.11,6.94,19.83.47,97.96-2.33,123.54-3.01,1.13-.03,2.49-2.38,2.95-3.41s1.36-2.92,0-4.5c-3.89-4.52-28.08-25.07-28.08-25.07" style="fill: none; stroke: #000; stroke-miterlimit: 10; stroke-width: 4px;"/>
      <path d="M804.25,816.24c-90.38,68.02-20.83,185.63,29.7,176.11" style="fill: none; stroke: #000; stroke-miterlimit: 10;"/>
      <polygon points="833.8 816.31 790.71 816.09 807.04 805.55 824.95 798.87 841.86 795.94 867.94 796.83 879.71 797.86 863.59 801.31 846.66 807.79 833.8 816.31"/>
      <polygon points="809.42 840.79 814.44 835.38 784.3 834.87 779.66 840.7 809.42 840.79"/>
      <polygon points="758.31 933.25 754.99 915.85 754.66 896.41 756.71 878.77 763.34 856.34 776.36 832.1 791.46 815.6 804.25 816.24 794.5 824.32 787.63 831.13 783.04 836.19 777.56 843.39 772.18 852.42 768.09 860.85 764.29 871.52 761.62 883.53 760.58 893.72 760.67 905.47 761.61 916.02 763.92 925.53 766.02 932.65 769.93 942.83 774.93 952.83 780.55 961.77 785.47 968.23 792.14 975.5 799.58 981.94 807.44 987.07 815.66 990.74 821.7 992.32 828.95 992.89 832.68 992.35 854.51 1002.5 840.39 1002.5 815.84 995.21 791.83 982.27 778.33 968.84 766.58 951.58 758.31 933.25"/>
      <polygon points="796.72 865.09 765.42 863.78 764.4 869.46 795.56 870.51 796.72 865.09"/>
      <polygon points="759.59 887.3 792.36 888.9 790.3 903.79 790.54 915.11 758.86 912.49 759.07 895.85 759.59 887.3"/>
      <line x1="794.76" y1="936.32" x2="766.57" y2="934.09" style="fill: none; stroke: #000; stroke-miterlimit: 10;"/>
      <polygon points="793.95 936.32 792.58 930.72 762.42 927.92 764.63 934.09 793.95 936.32"/>
      <polygon points="776.51 956 803.29 959.96 807.02 965.98 779.06 961.91 776.51 956"/>
      <polygon points="789.75 973.02 814.75 976.6 821.07 983 795.67 979.42 789.75 973.02"/>
      <polygon points="886.05 814.7 924.91 814.7 906.68 805.04 882.96 797.86 863.75 801.85 879.09 810.37 886.05 814.7"/>
      <polygon points="890.49 819.04 901 832.14 907.82 840.7 950.43 840.46 937.18 825.39 928.31 818.75 890.49 819.04"/>
      <polygon points="910.58 845.99 952.4 845.99 956.47 852.21 962.27 868.39 961.17 868.53 923.78 867.92 922.44 864.41 922.74 859.87 921.75 855.18 918.7 852.28 915.14 851.53 913.09 852.27 910.58 845.99"/>
      <line x1="966.05" y1="882.51" x2="938.65" y2="881.87" style="fill: none; stroke: #000; stroke-miterlimit: 10;"/>
      <polygon points="930.72 874.4 965.25 874.82 966.47 882.19 964.84 882.48 939.16 881.88 933.9 877.55 930.72 874.4"/>
      <polygon points="942.73 887.98 944.88 892.27 948.51 900.44 951.7 904.91 955.24 907.82 962.42 911.34 968.1 914.44 967.25 919.81 964.22 923.13 956.62 923.83 953.99 923.39 950.36 922.18 949.62 922.75 945.63 932.66 962.87 934.39 965.27 922.43 966.55 920.58 967.99 913.47 968.68 905.27 968 892.34 966.57 888.72 964.86 888.83 952.16 888.43 942.73 887.98"/>
      <polygon points="944.31 937.57 943.9 940.3 944.11 945.46 942.27 952.26 938.15 958.87 939.28 959.42 950.74 961.11 956.99 949.81 960.35 939.91 944.31 937.57"/>
      <line x1="911.03" y1="997.21" x2="894.99" y2="993.47"/>
      <line x1="848.22" y1="990.62" x2="823.93" y2="985.07" style="fill: none; stroke: #000; stroke-miterlimit: 10;"/>
      <line x1="889.97" y1="1000.16" x2="897.46" y2="1001.88" style="fill: none; stroke: #000; stroke-miterlimit: 10;"/>
      <path d="M826.57,978.01c-8.92-1.94-7.74-.18-14.66-6.09" style="fill: none; stroke: #000; stroke-miterlimit: 10; stroke-width: 3px;"/>
      <polygon points="818.87 978.42 831.5 980.75 824.95 976.23 818.87 975.84 818.87 978.42"/>
      <polygon points="937.06 979.12 925.2 989.16 913.98 995.83 909.64 997.21 895.48 993.27 914.14 975.31 915.83 974.48 935.84 977.75 937.46 978.42 937.06 979.12"/>
      <polygon points="944.63 970.47 941.62 973.12 919.6 968.96 921.65 965.82 922.8 961.5 927.23 963.45 932.3 963.31 946.6 966.7 944.63 970.47"/>
      <path d="M877.2,801.31c-84.46,15-100.69,112.34-66.44,163.55,11.29,16.88,29.2,30.49,46.88,36.16" style="fill: none; stroke: #000; stroke-miterlimit: 10; stroke-width: 4px;"/>
      <path d="M863.07,844.36s6.64-.22,6.63.17c-.02.95-6.44,7.06-6.44,7.06-.17.18-.07.47.17.52,1.56.31,6.75-.23,6.75-.23" style="fill: none; stroke: #000; stroke-linecap: round; stroke-miterlimit: 10; stroke-width: 2px;"/>
      <path d="M876.72,860.34s5.21-.17,5.2.14c-.02.75-5.05,5.54-5.05,5.54-.13.14-.06.37.13.41,1.22.24,5.29-.18,5.29-.18" style="fill: none; stroke: #000; stroke-linecap: round; stroke-miterlimit: 10; stroke-width: 2px;"/>
      <path d="M873.98,827.83s8.46-.28,8.45.22c-.03,1.22-8.2,9-8.2,9-.21.23-.09.6.21.66,1.99.4,8.6-.29,8.6-.29" style="fill: none; stroke: #000; stroke-linecap: round; stroke-miterlimit: 10; stroke-width: 2px;"/>
      <polygon points="835.41 987.85 847.07 990.36 855.02 997.99 841.95 996.66 835.41 987.85"/>
      <polygon points="895.43 1001.54 889.92 999.88 887.21 1002.39 888.53 1003.13 892.72 1003.13 895.43 1001.54"/>
      <polygon points="799.32 1014.45 787.63 1024.47 809.23 1025.34 812.93 1021.72 826.13 1021.26 924.51 1020.75 915.61 1013.01 799.32 1014.45"/>
      <path d="M900.19,910.86c-.47.74-.66,1.24-.1,1.87.42.48.99.6,2.13.04" style="fill: none; stroke: #000; stroke-linecap: round; stroke-miterlimit: 10;"/>
    </g>
    <g id="_hamster-trut_" data-name="&amp;lt;hamster-trut&amp;gt;">
      <polygon points="822.57 1111.11 822.92 1116.09 825.33 1121.88 828.59 1125.96 839.97 1135.25 842.97 1136.97 838.51 1140.25 834.85 1143.62 833.74 1145.9 835.08 1147.94 838.07 1148.76 842.27 1148.02 853.81 1142.67 856.08 1141.37 865.16 1143.46 874.01 1145.55 891.6 1146.09 888.24 1148.3 885.56 1150.95 884.68 1153.51 884.85 1155.73 886.24 1156.91 889.11 1156.91 894.87 1154.46 900.54 1150.97 906.6 1146.19 928.1 1145.99 947.22 1144.61 958.3 1143.1 969.44 1140.73 982.39 1137.07 988.48 1135.09 988.5 1137.72 990.66 1140.1 994 1140.2 997.37 1138.44 999.68 1136.33 1001.17 1133.57 1001.92 1131.27 1002.63 1129.13 1011.37 1123.71 1013.63 1122.02 1017.4 1112.12 1018.36 1104.87 1017.03 1093.44 1013.51 1083.15 1008.39 1072.37 1002.88 1064.2 992.41 1056.88 984.24 1054.11 973.71 1052.78 963.67 1053.39 953.09 1056.06 944.67 1059.39 929.88 1065.46 920.54 1068.85 917.06 1069.18 904.82 1068.84 886.92 1069.95 885.15 1070.16 883.42 1066.01 880.77 1059.08 875.81 1055.42 869.82 1055.91 866.05 1058.85 863.71 1063.12 864.77 1066.16 868.22 1071 872.84 1074.46 868.51 1075.02 862.22 1077.11 856.49 1082.17 852.24 1086.17 847.17 1088.43 839.4 1090.82 835.04 1092.27 829.69 1094.65 825.9 1100.12 823.19 1106.32 822.57 1111.11" style="fill: #fff;"/>
      <path d="M891.09,1092.77s-6.59,8.49-9.65,10.21c-3.21,1.8-8.16,2.49-13.22,3.58-2.13.46-11.74,7.25-14.5,10.29-2.61,2.88-5.94,5.25-10.22,6.19-11.4,2.5-15.55-.21-17.78-3.52-1.03-1.52-2.27-3.26-2.27-3.26l-.62-8.37,2.56-6.84,5.08-6.33,6.6-3.06,7.5-2.33,7.14-2.86,4.77-4.31,5.58-4.33,6.59-2.36,4.18-1.02-5.38-4.28-3.21-5.76.36-3.89,3.63-3.31,4.62-1.79h4.02l3.9,3.66,1.75,3.3,1.43,4.58.74,3.25,7.91-.85,15.44-.95,9.01.76,7.37-1.49,13.79-5.64,18.1-7.04,12.85-2.18,9.94.37,7.29,1.47,8.12,3.26,6.09,4.15,3.95,4.01,3.11,4.57,2.66,5.4,2.97,6.6,2.34,5.62s2.25,9.37,2.52,12.56c.36,4.23-.31,11.5-2.62,16.76-1.33,3.04-6.18,8.02-9.05,9.7-1.87,1.09-13.19,5.84-13.19,5.84,0,0-5.09,2.38-14.16,4.97-5.63,1.6-21.91,6.09-43.35,7.47-11.46.74-23.35-.2-31.08-3.38-13.15-5.4-8.83-14.75-12.57-21.09-10.7-18.14-1.05-28.35-1.05-28.35Z" style="fill: #fcb547;"/>
      <path d="M943.59,1059.83s-10.69,5.25-20.19,8.25c-7.29,2.3-21.68.78-21.68.78,0,0-6.11,12.02-7.48,16.35-.55,1.73,1.06,3.01,1.98,3.16,5.34.85,13.66-11.88,24-18.65,2.97-1.94,10.99-4.59,13.22-5.35,9.7-3.29,10.16-4.54,10.16-4.54Z" style="fill: #c78d4d;"/>
      <path d="M842.52,1136.98s-11.49-8.08-15.92-14.09c-8.59-11.67-1.13-27.81,8.44-30.62,7.87-2.31,13.1-3.94,16.68-5.79,2.74-1.42,5.14-5.8,10.35-8.64,6.34-3.46,9.85-3.55,9.85-3.55,0,0-9.87-7.27-7.31-12.57,3.41-7.06,11.25-8.63,16.17-2.64,2.38,2.9,3.93,11.13,3.93,11.13,0,0,6.28-.79,11.07-1.1,15.99-1.04,21.05,1.36,27.63-1.04,5.14-1.88,22.42-9.32,29.01-11.77,11.27-4.19,20.88-3.72,25.38-3.26,19.79,2.04,27.35,13.29,29.48,16.91,2.01,3.4,6.97,14.63,8.37,18.33,1.16,3.08,3.52,13.55,2.44,20.66-.45,2.96-2.18,9.46-5.09,13.18-2.04,2.62-11.22,8.21-11.22,8.21,0,0-.35,3.22-1.11,4.59-.68,1.21-2.08,2.84-3.29,3.52-2.19,1.22-3.27,2.34-5.7,1.74-1.17-.29-2.86-1.28-3.17-2.45-.28-1.07-.4-1.97.38-2.75.71-.71,5.54-2.24,5.54-2.24,0,0-7.11,2.45-9.69,3.49-1.72.69-6.77,2.27-8.56,2.77-3.68,1.02-11.11,2.84-14.86,3.56-4.83.93-14.59,2.37-19.5,2.67-9.49.57-19.54,1.07-21.96,1.08-3.47.01-14.39.19-14.39.19,0,0-1.49,1.88-6.26,5.09-2.06,1.38-7.49,5.58-11.6,5.31-3.8-.25-4.23-5.41.64-8.6.37-.24,3.36-2.22,3.36-2.22,0,0-12.29.05-13.65-.1-2.26-.25-6.75-1.03-8.97-1.5-1.72-.37-6.8-1.78-6.8-1.78l-6.62-.75s-7.83,3.2-9.72,4.13c-3.44,1.69-8.85,3.32-10.75,1.31-2.52-2.67,1.16-5.39,2.36-6.29.81-.61,5.07-4.12,5.07-4.12Z" style="fill: none; stroke: #000; stroke-miterlimit: 10; stroke-width: 2px;"/>
      <path d="M881.44,1110.6c-2.31-3.6-6.12-4.5-8.24-4.56-12.42-.38-14.73,10.15-15.12,12.86-.34,2.36-1.13,7.76,4.52,13.98,2.7,2.96,9.84,5.02,16.04,1.3" style="fill: none; stroke: #000; stroke-linecap: round; stroke-miterlimit: 10; stroke-width: 2px;"/>
      <path d="M876.65,1121.66c-1.49,6.39-3.54,7.91-7.67,7.21-3.11-.53-4.87-4.17-4.24-8.61.82-5.78,3.72-7.89,6.87-7.68,3.61.24,6.06,4.72,5.04,9.08Z"/>
      <path d="M849.99,1091.76c7.56-.51,12.44,1.19,15.65,2.11,4.16,1.19,11.23,5.69,11.23,5.69,0,0-9.2-1.46-13.39-1.55-2.79-.06-7.25-.43-12.32,1.32" style="fill: none; stroke: #000; stroke-linecap: round; stroke-miterlimit: 10; stroke-width: 2px;"/>
      <path d="M921.16,1103.46c-7.11-2.62-12.27-2.38-15.61-2.41-4.33-.04-12.38,2.28-12.38,2.28,0,0,9.24,1.2,13.28,2.3,2.7.73,7.07,1.64,11.44,4.75" style="fill: none; stroke: #000; stroke-linecap: round; stroke-miterlimit: 10; stroke-width: 2px;"/>
      <path d="M929.88,1083.42c1.36-3.32,2.66-7.87,6.13-9.71,2.31-1.22,5.3-2.39,9.11-.01,2.51,1.57,4.94,5.1,4.64,7.17-.85,5.94-5.81,6.33-10.48,9.37" style="fill: none; stroke: #000; stroke-linecap: round; stroke-miterlimit: 10; stroke-width: 2px;"/>
      <line x1="844.54" y1="1108.92" x2="769.02" y2="1099.73" style="fill: none; stroke: #000; stroke-linecap: round; stroke-miterlimit: 10; stroke-width: 2px;"/>
      <line x1="845.34" y1="1117.31" x2="760.23" y2="1119.71" style="fill: none; stroke: #000; stroke-linecap: round; stroke-miterlimit: 10; stroke-width: 2px;"/>
      <line x1="846.54" y1="1125.31" x2="746.24" y2="1142.49" style="fill: none; stroke: #000; stroke-linecap: round; stroke-miterlimit: 10; stroke-width: 2px;"/>
      <path d="M1009.52,1125.18s-3.97,2.95-6.07,3.95c-3.77,1.79-9.41,3.79-16.26,6.17" style="fill: none; stroke: #000; stroke-miterlimit: 10; stroke-width: 2px;"/>
      <path d="M941.81,1145.23s-16.46,1-21.96,1.08c-7.5.11-21.15-.42-29.99-.19-15.08.39-22.11-2.39-27.68-3.42-6-1.12-12.44-.55-23.45-8.53" style="fill: none; stroke: #000; stroke-miterlimit: 10; stroke-width: 2px;"/>
    </g>
    <g id="_hamster-skilt_" data-name="&amp;lt;hamster-skilt&amp;gt;">
      <polyline points="610.45 457.64 607.42 459.28 603.07 460.33 599.99 459.32 598.96 457.26 600.24 455.1 603.11 453.21 599.02 449.57 597.06 445.74 596.48 440.26 597.84 434.05 602.43 424.53 604.59 418.69 600.4 419.87 596.48 419.78 594.23 418.69 593.87 416.32 595.73 414.15 600.76 411.9 605.17 410.5 605.75 406.16 596.24 405.12 589.89 402.85 584.9 397.83 582.38 393.01 582.23 388.27 582.72 384.85 585.4 380.93 587.96 378.98 586.81 372.47 586.12 365.02 587.63 358.35 589.5 352.91 595.37 344.82 588.34 341.52 584.79 338.17 584.43 334.58 586.16 330.34 588.26 329.06 593.73 329.77 602.1 333.98 605.05 333.98 617.63 329.66 626.43 327.57 636.81 327.46 645.21 328.41 649.34 328.07 655.38 326.02 663.91 320.39 667.46 320.8 670.17 322.63 670.61 324.01 670.34 329.39 668.9 333.26 665.88 336.39 662.99 338.42 666.5 343.66 672.84 355.73 676.48 363.5 678.45 369.22 679.18 377.33 685.62 386.07 691.61 385.46 694.55 386.23 695.62 388.42 694.96 390.33 692.05 392.99 688.09 395.27 694.79 416.36 698.52 431.49 699.54 440.71 699.8 449.77 698 455.11 694.19 460.06 696.85 461.01 698.06 463.34 697.04 466.05 694.55 467 691.25 466.33 686.64 463.03 682.19 464.33 673.76 465.14 660.6 463.78 645.66 460.42 637.42 459.32 629.94 461.17 615.12 458.79 610.45 457.64" style="fill: #fff;"/>
      <path d="M596.42,399.65c7.02-2.11,9.7-12.68,13.34-16.55,4.83-5.14,7.81-8.3,7.81-8.3,0,0,.34,3.89,11.72,8.34,4.55,1.78,7.96,3.51,11.72,5.74,8.47,5.03,18.64,4.82,23.78,4.2,3.7-.45,8.43-2.35,10.18-4.78,4.85-6.71,4.18-10.59,4.39-12.21.31-2.38-1.45-8.25-1.45-8.25l-2.91-7.07-4.67-10.25-5.85-10.15-.55-2.35,3.61-3.16,2.55-4.04,1.03-6.21-3.06-3.51-3.63-.74-3.23,1.52-5.43,3.1-6.44,3.1-5.59.6-9.91-1.63-10.67.44-9.64,2.72-10.41,3.82-3.68-1.24-7.33-3.02-3.85-.7-2.49,2.24-1.43,2.93.54,2.12,1.14,3.05,2.53,2.34,5.9,3.07-1.36,2.36-3.6,5.75-2.83,7.44-.74,6.3.1,7.42,1.39,5.18-2.8,2.32-2.62,4.52-.13,5.05s.99,4.18,1.94,5.19c5.44,5.72,10.02,4.1,12.61,3.32Z" style="fill: #fcb547;"/>
      <path d="M689.03,398.1s-3.22,8.04-4.01,11.34c-1.72,7.23-.29,17.24.59,21.31.77,3.55,4.41,10.12,6.69,12.95,1.7,2.1,7,8.44,7,8.44l-.09-15.43-4.43-20.34-5.76-18.26Z" style="fill: #fcb547;"/>
      <path d="M596.72,442.18s2.24-1.98,2.95-2.69c1.11-1.11,3.84-4.03,5-5.88.84-1.35,2.14-5.72,2.14-5.72l-4.02-3.5-2.51,4.43-3.05,8.01-.51,5.36Z" style="fill: #fcb547;"/>
      <path d="M620.58,327.87s.28,7.94.58,9.32c.28,1.3,2.81,1.51,3.59,1,1.55-1.02,6.78-10.84,6.78-10.84l-10.95.52Z" style="fill: #c78d4d;"/>
      <path d="M630.04,347.93l5.69,2.05,2.88,2.97,1.41,5.2-.9,6.74-2.73,6.42-3.53,4.62-4.18,3.24-4.5.84-4.05-1.32-3.66-3.09-1.8,2.63-2.84,2.99-2.17.78-2.78-.02-3.58-2.5-1.41-3.47-.53-4.96.8-6.08,2.76-6.48,3.85-4.86,3.74-1.97s1.9,4.4,3.27,5c.81.35,3.46-.6,3.46-.6l3.9-2.07,6.87-6.07Z" style="fill: #fff;"/>
      <path d="M688.15,395.44s3.47,10.44,4.66,14.32,3.38,11.15,4.27,14.92c.6,2.54,1.71,7.65,1.97,10.24.22,2.19.77,8.74.74,10.94-.06,4.96.15,7.21-3.61,11.74-.9,1.08-3.85,3.91-12.78,6.41" style="fill: none; stroke: #000; stroke-linecap: round; stroke-miterlimit: 10; stroke-width: 2px;"/>
      <path d="M693.05,459.62s2.59.97,3.37,1.45c1.36.83,1.78,2.93.86,4.17-1.99,2.67-4.16,1.87-6.28.68-1.51-.85-3.91-2.93-3.91-2.93,0,0-3.56,1.01-4.41,1.23-1,.26-3.04.68-4.07.77-1.71.15-5.16.21-6.87.1-3.04-.2-9.1-.9-12.1-1.47-2.49-.48-7.38-1.87-9.87-2.39-2.63-.55-7.93-1.61-10.62-1.67-.88-.02-2.63.18-3.49.33-1.22.21-3.62.98-4.86,1.05-2.31.12-6.9-.71-9.18-1.12-2.4-.43-7.3-.86-9.5-1.92-.35-.17-1.64-.49-1.64-.49,0,0-.8.67-1.26.89s-2.19,1.02-2.69,1.1c-.74.12-4.53,1.74-6.64-.44-1.79-1.85.5-3.77,1.07-4.14.76-.5,2.21-1.37,2.21-1.37,0,0-2.56-2.14-3.4-2.99-1.16-1.19-2.68-3.67-2.92-5.7s-.09-6.01.37-7.94c.51-2.08,2.09-6.09,3.05-8.01.57-1.14,1.69-3.45,2.51-4.43.49-.58,1.92-1.33,2.31-1.99.51-.84.67-3.86.67-3.86,0,0-2.33.95-3.15,1.08-1.06.16-6.79.99-8.1-.78s.34-3.84,1.2-4.68c.71-.69,5.93-2.56,8.03-3.01.66-.14,2.66-.31,2.66-.31l-2.92-4.45" style="fill: none; stroke: #000; stroke-miterlimit: 10; stroke-width: 2px;"/>
      <path d="M605.75,406.66s-4.37-.46-5.81-.71c-2.37-.41-6.84-1.52-9.18-2.89-3.36-1.96-6.41-5.73-6.94-6.73-1.75-3.25-2.63-9.74.27-13.61.62-.83,3.34-3.46,3.34-3.46,0,0-.71-3.34-.89-4.47-.32-2.01-.72-6.1-.6-8.14.13-2.3,1.28-6.79,1.89-9.01.53-1.93,1.96-5.72,2.98-7.44,1.12-1.9,5.61-6.8,5.61-6.8" style="fill: none; stroke: #000; stroke-linecap: round; stroke-miterlimit: 10; stroke-width: 2px;"/>
      <path d="M594.93,345.04s-3.64-1.75-4.81-2.41c-.8-.45-2.45-1.33-3.11-1.97s-1.79-2.09-2.03-2.96c-.32-1.15-.46-3.66-.05-4.79.34-.93,1.43-2.76,2.3-3.22.72-.39,2.43-.53,3.23-.4,1.16.19,4.87,1.63,5.95,2.1.69.3,4.91,2.42,6.7,2.62.78.09,2.34-.34,3.1-.54,4.74-1.26,13.13-5.2,18-5.74,11.42-1.27,17.42,1.01,23.22.66,1.74-.11,5.14-1.18,6.7-1.96,1.64-.82,4.63-2.97,6.17-3.95.88-.56,2.57-1.91,3.6-2.09s3.27.12,4.16.69c.82.52,2.3,1.99,2.54,2.93.39,1.52-.26,4.74-.76,6.23-.33,1-1.02,3.02-1.65,3.87-.97,1.32-4.87,4.38-4.87,4.38,0,0,2.41,3.86,3.17,5.18,1.62,2.81,4.84,8.47,6.2,11.42,1.62,3.5,4.34,8.98,5.22,12.74.45,1.94.46,7.25,1.26,9.51.74,2.06,4.8,7.33,4.8,7.33l.69,1.23" style="fill: none; stroke: #000; stroke-miterlimit: 10; stroke-width: 2px;"/>
      <path d="M673.59,375.81c5.43,6.84,2.99,21.77-13.09,21.31" style="fill: none; stroke: #000; stroke-linecap: round; stroke-miterlimit: 10; stroke-width: 2px;"/>
      <path d="M628.75,394.65c.25-1.25-1.13-3.75-2.01-4.68-.8-.85-3.57-3.87-8.09-3.61-1.01.06-3.97,1.56-3.76,6.6.04,1.01-.08,3.18.5,4,1.67,2.37,5.66,1.7,7.04,1.51s5.65-.49,6.33-3.83Z" style="stroke: #000; stroke-miterlimit: 10;"/>
      <path d="M607.69,348.34s2.73,1.29,3.46,1.96c.82.76,1.83,2.82,2.53,3.7.61.77,1.91,2.43,2.85,2.71.58.17,1.92.05,2.4-.32.37-.29.68-1.56.68-1.56,0,0,.6.37,1.21.35.43-.01,1.26-.38,1.62-.62.85-.58,2.38-1.98,3.1-2.7.92-.92,2.56-2.95,3.54-3.79.84-.71,2.7-1.93,3.68-2.42.84-.42,3.46-1.43,3.46-1.43" style="fill: none; stroke: #000; stroke-linecap: round; stroke-miterlimit: 10; stroke-width: 2px;"/>
      <path d="M619.5,349.16s-.47,3.88-.52,4.23c-.13,1.05.77,1.63.77,1.63,0,0-1.56,3.3-1.87,4.18-1.38,4.01-1.58,6.63-1.73,8.89-.06.97-.02,2.91.13,3.87.14.85.47,2.57.85,3.35.27.55.96,1.6,1.43,1.98,2.83,2.32,5.47,2.11,7.1,2.02,3.36-.2,5.44-1.92,6.7-3.31,1.14-1.26,4.71-4.86,6.56-11.87.36-1.35.62-4.14.67-5.53.19-5.25-3.01-8.04-3.86-8.61s-4.49-2.59-6.65-1.92" style="fill: none; stroke: #000; stroke-linecap: round; stroke-miterlimit: 10; stroke-width: 2px;"/>
      <path d="M616.49,375.14s-.92,1.21-1.23,1.61c-.61.81-1.84,2.46-2.62,3.12-.9.77-3.84,3.32-7.86.18-2.55-1.99-2.68-7.31-2.68-8.58-.01-1.71.44-5.11.82-6.77,1.22-5.27,5.51-11.31,9.53-12.49" style="fill: none; stroke: #000; stroke-miterlimit: 10; stroke-width: 2px;"/>
      <path d="M618.93,366.63c-2.22,4.59-1.75,9.83,1.65,11.41,4.65,2.17,8.53,1.31,10.75-3.28s1.75-12.32-1.72-13.74c-5.17-2.12-8.46,1.02-10.68,5.6Z"/>
      <path d="M616.88,374.3c-.65,2.93-6.71,8.5-9.33,7.38-3.27-1.39-3.81-2.53-4.11-4.81s.18-4.12.38-5.39c.65-4.2,4.11-7.96,7.05-7.98s4.47,1.37,5.29,3.29c0,0-.12,2.16.07,3.29.25,1.46.91,3.08.66,4.22Z"/>
      <path d="M676.01,399.34s3.66-.63,4.79-.9c1.59-.39,5.44-1.99,6.84-2.82,2.31-1.37,6.74-3.39,7.36-6.06.05-.23,1.29-3.11-2.55-4.04-1.44-.35-9.9,1.04-11.25,1.14-1.1.08-2.46.03-2.46.03" style="fill: none; stroke: #000; stroke-linecap: round; stroke-miterlimit: 10; stroke-width: 2px;"/>
      <polygon points="427.2 157.35 551.36 105.91 618.13 276.17 493.91 324.32 427.2 157.35" style="fill: #fff7e4; stroke: #000; stroke-miterlimit: 10; stroke-width: 3px;"/>
      <polygon points="477.95 136.32 473.66 126.05 482.71 122.01 486.7 131.99 477.95 136.32" style="stroke: #000; stroke-miterlimit: 10; stroke-width: 3px;"/>
      <path d="M594.63,405.88l17.26,37.3,9.32-4.45-11.32-20.95-5.47-10.71s-1.61-.18-4.1-.08c-.71.03-5.69-1.11-5.69-1.11Z" style="stroke: #000; stroke-miterlimit: 10; stroke-width: 3px;"/>
      <path d="M556.81,299.94s29.36,62.15,29,63.96c-.39,1.97-.68,3.78-.62,5.77.08,2.58,1.1,9.22,1.1,9.22l-2.58,2.95-35.59-78.53,8.68-3.37Z" style="stroke: #000; stroke-miterlimit: 10; stroke-width: 3px;"/>
      <path d="M613.28,458.34c-3.97-1.37-5.59-2.45-7.19-3.26-1.96-1-4.32-2.85-4.32-2.85" style="fill: none; stroke: #000; stroke-linecap: round; stroke-miterlimit: 10; stroke-width: 2px;"/>
      <text transform="translate(458.68 199.17) rotate(-21.24)" style="font-family: BalooBhaijaan-Regular, &apos;Baloo Bhaijaan&apos;; font-size: 23.49px;"><tspan x="0" y="0">H</tspan></text>
      <text transform="translate(473.38 193.45) rotate(-21.24)" style="font-family: BalooBhaijaan-Regular, &apos;Baloo Bhaijaan&apos;; font-size: 23.49px;"><tspan x="0" y="0">A</tspan></text>
      <text transform="translate(487.12 188.11) rotate(-21.24)" style="font-family: BalooBhaijaan-Regular, &apos;Baloo Bhaijaan&apos;; font-size: 23.49px;"><tspan x="0" y="0">M</tspan></text>
      <text transform="translate(504.59 181.32) rotate(-21.25)" style="font-family: BalooBhaijaan-Regular, &apos;Baloo Bhaijaan&apos;; font-size: 23.49px;"><tspan x="0" y="0">S</tspan></text>
      <text transform="translate(516.37 176.74) rotate(-21.24)" style="font-family: BalooBhaijaan-Regular, &apos;Baloo Bhaijaan&apos;; font-size: 23.49px;"><tspan x="0" y="0">T</tspan></text>
      <text transform="translate(528.53 172.01) rotate(-21.24)" style="font-family: BalooBhaijaan-Regular, &apos;Baloo Bhaijaan&apos;; font-size: 23.49px;"><tspan x="0" y="0">E</tspan></text>
      <text transform="translate(540.54 167.35) rotate(-21.24)" style="font-family: BalooBhaijaan-Regular, &apos;Baloo Bhaijaan&apos;; font-size: 23.49px;"><tspan x="0" y="0">R</tspan></text>
      <text transform="translate(553.78 162.2) rotate(-21.24)" style="font-family: BalooBhaijaan-Regular, &apos;Baloo Bhaijaan&apos;; font-size: 23.49px;"><tspan x="0" y="0">-</tspan></text>
      <text transform="translate(466.68 218.77) rotate(-21.25)" style="font-family: BalooBhaijaan-Regular, &apos;Baloo Bhaijaan&apos;; font-size: 23.49px;"><tspan x="0" y="0">H</tspan></text>
      <text transform="translate(481.39 213.05) rotate(-21.24)" style="font-family: BalooBhaijaan-Regular, &apos;Baloo Bhaijaan&apos;; font-size: 23.49px;"><tspan x="0" y="0">J</tspan></text>
      <text transform="translate(490.43 209.54) rotate(-21.25)" style="font-family: BalooBhaijaan-Regular, &apos;Baloo Bhaijaan&apos;; font-size: 23.49px;"><tspan x="0" y="0">U</tspan></text>
      <text transform="translate(504.96 203.89) rotate(-21.24)" style="font-family: BalooBhaijaan-Regular, &apos;Baloo Bhaijaan&apos;; font-size: 23.49px;"><tspan x="0" y="0">L</tspan></text>
      <text transform="translate(516.2 199.52) rotate(-21.25)" style="font-family: BalooBhaijaan-Regular, &apos;Baloo Bhaijaan&apos;; font-size: 23.49px;"><tspan x="0" y="0"> </tspan></text>
      <text transform="translate(520.58 197.81) rotate(-21.25)" style="font-family: BalooBhaijaan-Regular, &apos;Baloo Bhaijaan&apos;; font-size: 23.49px;"><tspan x="0" y="0">?</tspan></text>
      <text transform="translate(490.45 265.27) rotate(-21.24)" style="font-family: BalooBhaijaan-Regular, &apos;Baloo Bhaijaan&apos;; font-size: 26.85px;"><tspan x="0" y="0">N</tspan></text>
      <text transform="translate(507.44 258.67) rotate(-21.24)" style="font-family: BalooBhaijaan-Regular, &apos;Baloo Bhaijaan&apos;; font-size: 26.85px;"><tspan x="0" y="0">E</tspan></text>
      <text transform="translate(521.27 253.29) rotate(-21.24)" style="font-family: BalooBhaijaan-Regular, &apos;Baloo Bhaijaan&apos;; font-size: 26.85px;"><tspan x="0" y="0">J</tspan></text>
      <text transform="translate(531.58 249.28) rotate(-21.24)" style="font-family: BalooBhaijaan-Regular, &apos;Baloo Bhaijaan&apos;; font-size: 26.85px;"><tspan x="0" y="0"> </tspan></text>
      <text transform="translate(536.61 247.33) rotate(-21.24)" style="font-family: BalooBhaijaan-Regular, &apos;Baloo Bhaijaan&apos;; font-size: 26.85px;"><tspan x="0" y="0">T</tspan></text>
      <text transform="translate(549.52 242.31) rotate(-21.24)" style="font-family: BalooBhaijaan-Regular, &apos;Baloo Bhaijaan&apos;; font-size: 26.85px;"><tspan x="0" y="0">A</tspan></text>
      <text transform="translate(565.18 236.22) rotate(-21.24)" style="font-family: BalooBhaijaan-Regular, &apos;Baloo Bhaijaan&apos;; font-size: 26.85px;"><tspan x="0" y="0">K</tspan></text>
      <path d="M615.6,381.69c.24.85.49,1.31,1.34,1.31.64,0,1.11-.34,1.44-1.57" style="fill: none; stroke: #000; stroke-linecap: round; stroke-miterlimit: 10;"/>
    </g>
    <g id="_hamster_" data-name="&amp;lt;hamster&amp;gt;">
      <polyline points="687.11 1034.99 686.49 1039.51 682.42 1045.31 680.33 1050.51 678.45 1057.79 679.91 1064.72 683.47 1070.24 689.41 1075.66 685.7 1078.48 684.82 1080.14 685.26 1081.74 687.35 1082.97 691.77 1081.88 698.25 1078.3 706.97 1079.86 717.42 1079.85 735.05 1078.53 745.28 1078.1 752.11 1079.14 758.05 1080.62 763.43 1080.99 771.84 1080.66 779.75 1079.2 784.68 1077.56 787.51 1078.55 790.85 1079.4 793.82 1079.4 796.66 1078.39 796.91 1076.76 795.95 1074.46 791.99 1071.58 794.72 1068.6 796.01 1064.27 797.11 1058.68 797.2 1052.38 796.75 1043.63 795.57 1034.45 793.43 1023.57 790.42 1012.59 786.49 1001.57 781.86 989.86 778.4 982.37 777.84 975.63 774.76 967.12 769.18 960.57 773.29 957.16 775.84 953.69 775.57 948.54 773.17 944.77 769.87 943.16 758.39 943.58 749.99 942.42 736.66 940.16 722.37 939.05 714.04 940.58 703.01 944.03 692.96 949.29 687.46 953.69 682.43 960.43 675.46 965.85 667.44 969.17 663.52 970.74 662.66 973.41 663.79 976.06 665.74 978.42 668.63 979.88 672.72 980.22 675.46 979.82 677.25 979.72 676.98 990.01 677.69 998.55 679.31 1005.1 677.18 1013.73 676.27 1021 676.5 1025.67 678.64 1029.1 682.48 1033.32 687.11 1034.99" style="fill: #fff;"/>
      <path d="M685.91,1039.98s2.35,5.71,2.83,7.7c.75,3.15,1.59,9.63,1.51,12.86-.1,3.56-1.87,14.12-1.87,14.12l-6.71-6.71-2.42-6.74-.11-5.9.99-5.53,3.45-6.76,2.33-3.05Z" style="fill: #fcb547;"/>
      <path d="M794.4,1068.6s-5.02-7.35-6.09-10.1c-1.6-4.09-2.69-13.03-2.42-17.41.24-3.87,1.84-11.9,2.78-15.66.61-2.42,2.86-9.17,2.86-9.17l4.03,18.19,1.63,15.34-.68,12.11-2.12,6.71Z" style="fill: #fcb547;"/>
      <path d="M686.75,1034.37c-2.32.52-5.06-2.38-7.62-4.66-3.7-3.29-4.36-9.96-.55-20.56,1.89-5.25-1.3-14.69-1.3-14.69l-.36-10.52.28-3.7h-4.99s-5.18-.74-6.48-1.82c-1.03-.85-2.35-4.78-2.35-4.78l.81-2.94,7.75-2.93,8.13-4.42,9.94-12.3,9.17-5.08s11.74-4.51,15.78-5.61c6.77-1.83,13.71-.83,13.71-.83l13.18,1.28,15.38,2.97s9.59-1.47,12.63-.61c1.6.45,5.5,3.75,5.5,3.75,0,0,.73,4.92.32,6.49-.29,1.08-2.39,3.76-2.39,3.76l-4.61,2.74,3.95,4.48,5.04,8.41.59,6.2s2.82,8.9,3.11,15.37c.12,2.66-.49,7.1-.64,8.84-.55,6.53-3.49,9.09-6.23,10.52-2.49,1.3-5.38,2.69-11.34,2.29-8.77-.59-9.15-6.02-23.71-7.61-18.34-2.01-17.48-14.82-17.48-14.82,0,0,6.58,10.83-3.32,16.14-24.28,13.01-11.27,20-31.9,24.62Z" style="fill: #fcb547;"/>
      <path d="M702.97,943.68s8.94,33.42,14.64,38.67c.69.63,3.18.2,3.68-.59,3.69-5.91,1.08-42.71,1.08-42.71l-19.4,4.63Z" style="fill: #c78d4d;"/>
      <path d="M713.78,1031.08s-6.97,2.24-9.28,3.01c-2.12.71-6.42,2.18-8.65,2.32-3.13.19-9.44-1.32-12.24-2.74-2.23-1.13-5.78-5.08-6.75-7.38-1.08-2.58-.46-8.42,0-11.18.38-2.31,2.3-6.73,2.32-9.07.02-1.51-1.03-4.42-1.27-5.91-.54-3.45-1.06-10.43-1.05-13.92,0-4.68,1.08-14.11,2.53-18.57,1.55-4.77,7.26-13.53,11.18-16.67,6.27-5.02,21.96-10.92,29.96-11.6,6.87-.59,20.63,1.58,27.43,2.74,2.32.4,6.93,1.49,9.28,1.66,2.73.2,8.22-.63,10.95-.39,1.2.1,3.61.38,4.98,1.39.87.64,1.9,2.28,2.25,3.3.97,2.84.63,4.82,0,6.26s-2.39,3.35-3.98,4.76c-.91.8-3.37,2.51-6.38,3.65-.8.3-2.47.73-3.32.78s-3.52,0-3.52,0" style="fill: none; stroke: #000; stroke-linecap: round; stroke-miterlimit: 10; stroke-width: 2px;"/>
      <path d="M768.68,959.9s4.97,5.42,6.08,7.22,2.52,5.85,2.97,7.92c.34,1.55.35,4.77.74,6.31.43,1.71,1.95,4.91,2.6,6.54,1.79,4.48,5.39,13.43,7.05,17.96.83,2.25,2.34,6.79,3.03,9.09,1.02,3.42,2.76,10.35,3.46,13.85.86,4.28,2,12.96,2.38,17.31.3,3.45.4,10.41,0,13.85-.26,2.24-1.57,6.64-2.6,8.66-1.11,2.19-4.5,5.93-6.49,7.36-2.12,1.51-7.23,2.99-9.74,3.68-1.69.46-5.18.91-6.92,1.08-3.12.31-9.44.41-12.55,0-2.59-.34-7.58-2.03-10.17-2.38-2.84-.39-8.6-.35-11.47-.22-3.69.18-11.03,1.27-14.72,1.51-3.83.26-11.53.37-15.36.22-2.13-.08-6.37-.6-8.44-1.08-2.67-.62-7.83-2.68-10.17-4.11-2.02-1.24-5.41-4.72-6.71-6.71-1.33-2.04-2.66-6.88-2.81-9.31-.18-2.88,1.47-8.6,2.6-11.25.64-1.51,2.69-4.14,3.51-5.56.54-.93,1.55-2.9,1.63-3.97.06-.75.17-3.5.17-3.5" style="fill: none; stroke: #000; stroke-miterlimit: 10; stroke-width: 2px;"/>
      <path d="M683.89,958.92s-3.66,3.87-5.04,4.97c-1.14.91-3.58,2.54-4.9,3.15-1.56.71-4.9,1.53-6.5,2.13-.84.32-2.63.87-3.25,1.52-1.45,1.52-1.79,3.42.1,6.19.57.83,2.11,2.26,3.05,2.64,1.14.47,3.64.75,4.87.71.82-.02,2.53-.02,3.25-.41.45-.24,1.92-1.3,2.16-3.31" style="fill: none; stroke: #000; stroke-miterlimit: 10; stroke-width: 2px;"/>
      <path d="M718.66,1047.48s2.92,7.06,6.31,8.51c3.82,1.64,5.36-.7,5.3-2.71-.04-1.53-.48-4.02-1-5.46-.38-1.07-1.9-4.8-1.9-4.8" style="fill: none; stroke: #000; stroke-linecap: round; stroke-miterlimit: 10; stroke-width: 2px;"/>
      <path d="M749.65,1039.98s-7.16,12.54-3.88,14.87c3.02,2.15,6.49-2.84,7.74-4.24s4.89-5.87,4.89-5.87" style="fill: none; stroke: #000; stroke-linecap: round; stroke-miterlimit: 10; stroke-width: 2px;"/>
      <path d="M689.89,1075.28s-2.17,1.68-2.83,2.31c-.48.45-3.31,2.44-1.8,4.15.69.78,1.97.78,2.74.78,1.81,0,4.96-1.44,5.96-2,1.76-.98,3.67-1.98,3.67-1.98" style="fill: none; stroke: #000; stroke-miterlimit: 10; stroke-width: 2px;"/>
      <path d="M783.96,1077.83s3.21.56,4.43.95c1.5.49,5.77,1.1,7.2,0,.64-.5,1.48-1.67.83-3.14-.48-1.07-2.34-2.83-3.46-3.18-.59-.19-1.32-.08-1.32-.08" style="fill: none; stroke: #000; stroke-miterlimit: 10; stroke-width: 2px;"/>
      <path d="M772.71,981.37c2.13,2.33,4.42,5.93,5.49,8.14.84,1.74,1.76,5.54,2.12,7.44.49,2.57,2.85,12.83-6.73,18.59-1.98,1.19-6.42,2.7-8.68,3.19-5.72,1.24-13.72,1.39-17.17.18" style="fill: none; stroke: #000; stroke-linecap: round; stroke-miterlimit: 10; stroke-width: 2px;"/>
      <path d="M755.26,993.6c-8.65.74-12.28,3.09-14.77,4.28-2.5,1.19-7.71,4.81-7.71,4.81,0,0,8.12-1.07,11.24-1.27,3.1-.19,11.24.05,11.24.05" style="fill: none; stroke: #000; stroke-linecap: round; stroke-miterlimit: 10; stroke-width: 2px;"/>
      <path d="M697.1,1003.03c5.09-.3,8.07-.13,10.88,0,3.11.15,9.69,1.23,9.69,1.23,0,0-7.53,3.06-11.15,4.27-2.28.77-9.42,2.89-9.42,2.89" style="fill: none; stroke: #000; stroke-linecap: round; stroke-miterlimit: 10; stroke-width: 2px;"/>
      <path d="M709.95,1017.59s3.64,2.42,5.03,2.38c2.11-.06,5.34-3.63,7.41-4.05s5.96,2.12,8.02,2.03c2.23-.11,5.74-3.59,7.91-4.12,1.81-.45,7.41.98,7.41.98" style="fill: none; stroke: #000; stroke-linecap: round; stroke-miterlimit: 10; stroke-width: 2px;"/>
      <path d="M724.69,1009.5c.35.81.65,1.24,1.49,1.13.63-.08,1.05-.48,1.23-1.74" style="fill: none; stroke: #000; stroke-linecap: round; stroke-miterlimit: 10;"/>
    </g>
  </g>
</svg>