<?xml version="1.0" encoding="UTF-8"?>
<svg xmlns="http://www.w3.org/2000/svg" width="1080" height="1350" viewBox="0 0 1080 1350">
  <g id="skygger">
    <ellipse cx="761.86" cy="979.78" rx="136.04" ry="37.47" style="stroke: #000; stroke-miterlimit: 10; stroke-width: .5px;"/>
    <polygon points="374.43 928.66 336.29 912.13 303.19 886.89 229.89 841.02 113.48 782.63 172.24 762.44 217.63 743.18 382.51 802.47 380.44 890.72 377.02 901.28 374.43 928.66" style="stroke: #000; stroke-miterlimit: 10; stroke-width: .5px;"/>
    <path d="M818.54,1140.22c1.24,13.26,52.51,19.81,112.03,12.93,59.52-6.88,106.53-23.18,105-36.41-1.53-13.23-51.02-18.37-110.54-11.48-43.89,5.07-78.75,6.71-94.4,19.34-3.41,2.75-10.48.88-12.46,7.76-.77,2.67.05,4.45.37,7.86Z" style="stroke: #000; stroke-miterlimit: 10;"/>
    <ellipse cx="712.53" cy="1068.19" rx="46.35" ry="23.01" style="stroke: #000; stroke-miterlimit: 10;"/>
  </g>
  <g id="talerstol">
    <g id="_talerstol_" data-name="&amp;lt;talerstol&amp;gt;">
      <path d="M377.69,889.67c-.04.97-.84,1.73-1.81,1.7-1.62-.05,0-.91,0,0l-3.83,35.26c0,2.36,1.88,4.29,4.23,4.36l59.05,1.71,279.41-1.96c2.38-.03,2.6-3.96,2.6-6.34l-2.14-32.18c0-.84,1.89.02,2.41-.73l11.82-24.25c.21-.3.36-.66.34-1.03-.12-1.95,7.55-13.86,7.55-15.18l.1-258.36-.22-153.77c0-1.38,2.78-4.43.2-4.41l-321.41,1.94c-.43,0-3.67,2.85-4.05,3.05l-31.39,14.97c-.84.45-2.14,4.55-2.14,5.51,0,0,.38,399.52-.73,429.71Z" style="fill: #904a14;"/>
      <polygon points="377.55 891.37 373.92 929.82 716.21 929.6 737.35 887.18 738.65 851.12 715.54 893.29 377.55 891.37" style="fill: #f5c997;"/>
      <polygon points="379 891.57 379 456.31 711.12 456.31 714.59 893.9 379 891.57" style="fill: none; stroke: #000; stroke-miterlimit: 10; stroke-width: 4px;"/>
      <polygon points="377.55 891.37 373.92 929.82 716.46 931.39 714.59 893.9 377.55 891.37" style="fill: none; stroke: #000; stroke-miterlimit: 10; stroke-width: 4px;"/>
      <text transform="translate(401.52 515.8)" style="fill: #fde6a7; font-family: ADLaMDisplay-Regular, &apos;ADLaM Display&apos;; font-size: 23.46px;"><tspan x="0" y="0">Besk</tspan><tspan x="52.18" y="0" style="letter-spacing: 0em;">æ</tspan><tspan x="71.54" y="0" style="letter-spacing: .01em;">f</tspan><tspan x="80.84" y="0">tigelsesmini</tspan><tspan x="215.56" y="0" style="letter-spacing: -.02em;">s</tspan><tspan x="225.79" y="0" style="letter-spacing: 0em;">t</tspan><tspan x="235.08" y="0">eri</tspan><tspan x="264.3" y="0" style="letter-spacing: 0em;">e</tspan><tspan x="277.32" y="0">t</tspan></text>
      <path d="M714.41,894.77s23.75-42.64,23.55-45.82c-.2-3.18-.51-411.4-.51-411.4l-26.33,18.77" style="fill: none; stroke: #000; stroke-miterlimit: 10; stroke-width: 4px;"/>
      <polyline points="739.53 435.46 414.9 436.96 377.75 455.87" style="fill: none; stroke: #000; stroke-miterlimit: 10; stroke-width: 4px;"/>
      <polyline points="716.84 932.69 738.05 885.62 737.96 848.95" style="fill: none; stroke: #000; stroke-miterlimit: 10; stroke-width: 4px;"/>
      <path d="M691.8,445.99c-2.46,5.23-34.68,5.23-65.99,5.23s-66.19-1.29-59.97-5.67c13.43-9.47,37.98-5.13,69.3-5.13s57.61,3.56,56.66,5.57Z" style="stroke: #000; stroke-miterlimit: 10;"/>
      <polygon points="538.9 553.96 541.11 550.08 550.7 544.57 562.18 543.75 572.91 549.31 578.98 555.9 585.28 568.05 585.3 577.62 583.58 590.64 579 599.98 570.76 606.69 561.32 609.25 552.42 609.1 543.92 605.5 539.09 601.6 536.93 600.01 541.02 593.95 544.22 584.52 544.94 573.49 543.79 561.52 538.9 553.96" style="fill: #fff;"/>
      <path d="M544.94,573.49c0,18.65-10.68,34.79-24.88,35.57-20.13,1.11-27.14-16.19-24.99-34.72,2.88-24.77,15.21-30.6,26.04-30.6,12.73,0,23.83,11.11,23.83,29.76Z" style="fill: #fff; stroke: #000; stroke-miterlimit: 10; stroke-width: 3px;"/>
      <path d="M537.33,599.28c3.54,5.48,9.45,8.79,18.93,9.83,15.82,1.73,29.04-12.04,29.04-31.48s-12.63-33.87-27.84-33.87c-8.71,0-14.74,3.57-18.67,9.11" style="fill: none; stroke: #000; stroke-miterlimit: 10; stroke-width: 3px;"/>
      <ellipse cx="525.68" cy="560.78" rx="5.47" ry="4.29" transform="translate(-181.75 861.38) rotate(-69.87)"/>
      <ellipse cx="566.64" cy="560.78" rx="5.47" ry="4.29" transform="translate(-154.88 899.84) rotate(-69.87)"/>
      <path d="M516.55,617.28c9.55,7.71,2.15,15.45-1.02,16.8" style="fill: none; stroke: #000; stroke-linecap: round; stroke-miterlimit: 10; stroke-width: 3px;"/>
      <path d="M551.37,618.04c-6.95,7.64-4.49,17.05.52,19.22" style="fill: none; stroke: #000; stroke-linecap: round; stroke-miterlimit: 10; stroke-width: 3px;"/>
      <path d="M520.94,627.65c10.39-3.33,19.52-2.28,26.16,0" style="fill: none; stroke: #000; stroke-miterlimit: 10; stroke-width: 3px;"/>
    </g>
  </g>
  <g id="mikrofon">
    <g id="_mikrofon_" data-name="&amp;lt;mikrofon&amp;gt;">
      <polyline points="141.79 866.07 116.73 899.23 101.67 919.8 99.68 923.34 99.21 925.04 99.56 926.47 105.79 931.92 118.64 941.51 131.28 952.83 139.41 960.5 139.94 960.5 147.9 948.32 163.43 924.36 166.98 927.63 181.38 942.64 195.6 956.75 199.99 960.91 174.39 994.79 175.41 995.79 178.05 997.56 180.71 998.22 183.72 998.22 190.52 997.73 199.99 997.26 208.91 997.18 218.87 997.81 228.36 999.05 234.88 1000.05 239.3 1000.64 241.26 1000.64 242.11 1000.13 243.14 998.51 246.22 992.16 249.2 986.92 256.03 976.02 263.59 964.23 271.36 952 276.32 944.41 278.7 941.12 280.5 938.2 281.05 936.27 280.46 934.49 278.29 932.35 273.52 927.88 267.28 921.84 252.49 906.9 211.99 865.4 204.23 858.63 200.61 856.65 197.69 856.26 187.4 857.98 161.33 862.49 141.79 866.07" style="fill: #e6edf2;"/>
      <polygon points="174.39 994.79 180.47 986.63 190.74 973.01 196.98 964.77 200.07 960.98 203.06 963.76 214.74 974.24 226.83 984.74 232.86 989.95 238.04 994.66 240.36 996.88 241.11 998.29 241.42 999.57 241.35 1000.59 239.39 1000.83 234.56 1000.2 228.72 999.25 222.29 998.2 215.82 997.54 204.36 997.08 197.85 997.33 188.61 997.87 182.83 998.35 180.88 998.25 177.56 997.63 175.42 996.04 174.39 994.79" style="fill: #a0a1a9;"/>
      <polygon points="140.01 961.07 149.73 946.38 162.94 925.47 163.38 924.79 161.7 923.25 157.11 919.81 154.09 918.9 151.11 918.82 146.38 919.9 140.01 921.42 134.26 922.28 123 922.57 110.82 922.3 103.74 921.99 101.37 922.23 99.84 922.82 99.21 924.5 99.21 926.37 100.92 928.16 107.52 933.16 114.79 938.16 121.7 943.52 128.46 949.45 136.34 956.93 140.01 961.07" style="fill: #a0a1a9;"/>
      <polygon points="157.59 919.97 202.37 857.3 200.08 856.27 197.07 856.04 184.48 858.06 141.63 865.82 125.93 886.64 106.53 912.29 99.9 922.23 102.04 921.87 105.26 921.56 113.48 922.12 124.39 922.31 134.89 921.97 142 920.62 148.17 919.19 152.77 918.61 155.63 918.83 157.59 919.97" style="fill: #d3d6db;"/>
      <polygon points="173.38 860.4 173.23 859.4 175.05 854.72 181 842.15 186.56 833.87 193.26 826.34 200.44 819.54 208.6 813.06 215.12 809 221.5 806 244.46 800.17 263.02 802.22 273.69 817.27 276.54 821.05 280.39 827.93 282.62 833.76 283.74 837.71 284.55 841.41 285.73 848.09 285.78 855.15 285.42 861.12 283.82 871.33 281.74 879.52 279.56 887.57 276.76 894.19 273.57 900.55 269.47 907.14 266.66 911 262.07 916.6 245.27 899.53 231 884.89 213.73 867.12 205.85 859.74 201.12 856.66 198.57 856.25 194.38 856.61 173.38 860.4" style="fill: #d84545;"/>
      <path d="M274.79,818.66c7.35,9.27,9.24,20.15,9.89,23.42,1.96,9.79.94,19.1-.07,24.99-1.13,6.62-3.37,16.31-5.18,20.8-3.38,8.39-7.14,16.98-17.23,28.55" style="fill: none; stroke: #000; stroke-miterlimit: 10;"/>
      <path d="M232.22,845.39l-1.15-1.58-.12-2.66,1.92-3,5.1-2.77,6.33-1.87,5.09.14,2.83-.14,8.41-2.21,6.9-1.82,4.31-1.02,2.96-.7,1.15-.73.74-1.09.81-.9,1.39-.13,6.64.58s6.59.8,8.65,1.55c1.17.43,3.34,1.72,4.31,2.5.82.66,3.01,2.93,3.01,2.93l3.27,4.37,2.5,4.67,1.53,3.43,1.28,3.55,1.03,5.17.96,7.03.6,8.97-.02,8.19-.68,7.3-1.01,5.78-1.59,5.9-2.15,5.13-2.23,3.43-2.53,3.05-2.71,2.78-3.74,2.88-3.3,1.98-3.16,1.28-3.76.91-4.45.42-5.14-.2-5.15-1.11-4.24-1.71-4.03-2.66-3.75-4.27-2.45-4.5-.61-6.96.32-6.96.96-7.43,1.25-8.54.33-6.38-.33-6.27-1.15-5.62-1.86-4.13-3.03-2.81-3.8-2.39-3.39-.48-4.62.3-3.37-.26-2.88-.32-2.18-.6Z" style="fill: #db9797;"/>
      <path d="M172.97,860.34c3.44-12.99,12.59-25.64,15.98-29.41,7.71-8.59,20.08-20.16,31.39-24.31" style="fill: none; stroke: #000; stroke-miterlimit: 10; stroke-width: 2px;"/>
      <path d="M248.65,833.64s-3.94,0-7.44.76c-2.03.44-6.09,2.23-7.78,3.44-.91.65-2.04,2.29-2.48,3.31-.65,1.5.26,3.23.89,3.96.77.89,3.3,1.32,4.46,1.49,1.91.27,5.8-.23,7.73-.15,1.36.05,4.09.41,5.35.89.67.26,1.54.76,2.42,1.37,1.46,1.01,2.95,2.3,3.68,3.24,1.37,1.78,2.55,6.27,2.97,8.48.59,3.1.37,9.49.15,12.64-.26,3.71-1.66,11.03-2.08,14.72-.33,2.92-.79,8.83-.45,11.75,1,8.58,4.88,13.39,12.05,16.8,2.04.97,6.52,2.05,8.77,2.23,13.2,1.06,18.58-4.21,21.12-5.95s6.52-6.39,8.18-8.92c4.95-7.56,6.19-21.03,6.39-24.69.22-3.86,1.24-16.08-2.52-30.53-.99-3.81-4.26-10.12-6.41-13.42-1.09-1.68-5.45-6.13-7.22-7.06-4.87-2.57-12.31-2.49-16.43-2.97-.63-.07-1.97-.3-2.53,0-.68.36-1.29,1.96-1.93,2.38-.8.53-2.78.8-3.72,1.04-2,.51-6.04,1.39-8.03,1.93-2.72.74-8.09,2.44-10.86,2.97-1.39.27-3.23.32-4.65.28-.6-.02-2.81-.08-3.38-.28-.65-.22-1.85-.97-2.53-1.04-.95-.09-2.82.56-3.72.89-2.05.75-5.83,2.95-7.73,4.02-2.59,1.46-7.62,4.63-10.11,6.25-2.89,1.87-16.58,13.04-16.58,13.04,0,0,17.84-3.95,21.37-4.74,3.07-.69,9.25-1.87,12.33-2.53,1.33-.29,3.99-.9,5.34-1.09,1.19-.17,3.48-.3,4.78-.35,1.48-.06,3.15.04,5.85,2.56" style="fill: none; stroke: #000; stroke-miterlimit: 10; stroke-width: 2px;"/>
      <path d="M257.07,808.24c0,11.14-9.41,19.69-19.34,19.69s-17.45-8.37-17.45-19.51,7.38-20.36,17.31-20.59c11.26-.26,19.48,9.27,19.48,20.41Z" style="fill: #fff; stroke: #000; stroke-miterlimit: 10; stroke-width: 2px;"/>
      <path d="M281.89,803.47c0,12-6.79,17.58-16.76,17.58-5.95,0-9.94-4.46-9.94-4.46,0,0,3.16-6.1,1-14.56-1.36-5.33-7.89-11.07-7.89-11.07,0,0,3.43-8.54,12.64-9.13,12.84-.82,20.95,9.64,20.95,21.64Z" style="fill: #fff; stroke: #000; stroke-miterlimit: 10; stroke-width: 2px;"/>
      <path d="M238.67,810.3c-3.19,4.64-3.3,12.17,1.96,15.11,3.67,2.05,9.21-.08,12.13-4.89,2.08-3.42,7.22-11.8.59-16.18-3.16-2.09-8.8-2.6-14.69,5.95Z"/>
      <path d="M272.51,807.39c2.61,7.24,1.52,11.38-3.72,13.38-3.81,1.45-12.38-.8-13.19-4.01-.28-1.1,2.1-2.85,1.05-12.53-.18-1.65,0-2.59,2.06-3.45,3.77-1.56,11.28-.39,13.81,6.61Z"/>
      <path d="M204.79,855.93l11.66-9.51,6.91-4.56,4.57-2.84,4.4-2.57,3.62-2.24,3.95-1.42,2.49-.47,2.53,1.04-4.12,1.01-5.09,1.83-2.48,1.95s-1.51,1.49-1.84,2.15c-.22.44-.5,2.03-.5,2.03l.42,1.8.53.98,1.33.77,1.99.52,2.7.27,2.79-.11,3.74-.1,2.79.34,2.21.54v.49l-4.53.22-4.22.64-7.4,1.35-10.14,2.11-7.59,1.97-6.54,1.58-4.37.77-.78.18.97-.72Z"/>
      <path d="M199.75,961.09l-25.37,33.7s1.79,1.82,2.51,2.27c.46.28,1.5.64,2.02.77.69.17,2.09.5,2.8.53,1.39.07,4.16-.27,5.54-.39,3.43-.28,10.3-.71,13.74-.72,4.81-.02,14.45.21,19.24.67,3.84.37,11.46,1.71,15.28,2.22,1.23.16,3.69.63,4.92.51.44-.04,1.35-.22,1.68-.52.28-.25.5-1.01.64-1.35.33-.8,1.13-2.33,1.55-3.09,1.11-2.04,3.32-6.13,4.51-8.12,3.27-5.49,10.22-16.22,13.67-21.59,3.22-5.02,9.55-15.13,12.83-20.11,1.27-1.93,4.2-5.56,5.18-7.66.21-.45.57-1.42.55-1.92-.02-.47-.32-1.4-.58-1.79-.39-.57-8.44-7.95-10.53-10.02-5.6-5.53-16.65-16.76-22.16-22.38-4.8-4.9-14.34-14.74-19.15-19.63-5.41-5.5-15.93-16.82-21.76-21.87-.88-.76-2.71-2.23-3.74-2.79-.9-.49-2.78-1.38-3.79-1.51-1.61-.2-4.87.29-6.47.56-6.14,1.04-18.39,3.37-24.52,4.47-6.27,1.13-18.88,2.97-25.1,4.35-.37.08-1.21.11-1.45.4-4.27,5.1-16.1,21.51-21.55,28.62-5.16,6.72-15.7,20.06-19.96,27.38-.49.83-1.25,2.76-1.06,3.71.16.8,1.52,1.92,2.12,2.47,3.98,3.72,13.11,9.78,17.31,13.25,3.02,2.49,8.78,7.78,11.66,10.42,2.46,2.25,9.7,9.14,9.7,9.14l23.58-36.61" style="fill: none; stroke: #000; stroke-miterlimit: 10; stroke-width: 2px;"/>
      <path d="M99.21,925.78s.15-1.91.47-2.44c.26-.43,1.2-.96,1.69-1.11,1.68-.51,5.26-.05,7.02,0,3.37.1,8.38.21,11.76.32,2.56.09,12.36-.09,14.9-.33,5.27-.49,13.4-3,15.07-3.2,3.96-.47,5.92-.03,7.63,1.19,2.25,1.62,6.51,5,8.55,7.06,4.94,5,14.7,15.1,19.64,20.1,3.82,3.86,11.7,11.34,15.67,15.03,4.48,4.16,13.62,12.29,18.22,16.31,3.05,2.67,9.25,7.9,12.3,10.57,1.72,1.51,6.25,5.58,6.73,6.19.31.39,1.64,1.51,2.22,3.02.16.41.18,1.33.18,1.77" style="fill: none; stroke: #000; stroke-miterlimit: 10; stroke-width: 2px;"/>
      <g>
        <text transform="translate(180.62 905.8) rotate(42.15)" style="fill: #ffe22f; font-family: Modak, Modak; font-size: 35.19px; stroke: #000; stroke-miterlimit: 10;"><tspan x="0" y="0">N</tspan></text>
        <text transform="translate(196.61 920.27) rotate(42.15)" style="fill: #ffe22f; font-family: Modak, Modak; font-size: 35.19px; stroke: #000; stroke-miterlimit: 10;"><tspan x="0" y="0">E</tspan></text>
        <text transform="translate(211.18 933.46) rotate(42.15)" style="fill: #ffe22f; font-family: Modak, Modak; font-size: 35.19px; stroke: #000; stroke-miterlimit: 10;"><tspan x="0" y="0">W</tspan><tspan x="30.88" y="0">S</tspan></text>
      </g>
      <path d="M175.82,992.78s-24.45,34-31.6,43.29c-17.18,22.29-66.16,82.53-70.77,87.53-2.48,2.69-9.21,11.14-11.93,13.35-2.62,2.12-3.77,1.6-5.48,1.58-1.95-.03-6.61-2.66-8.47-4.04-1.63-1.2-4.49-3.87-5.19-5.69-.62-1.59-1.51-2.5-.43-5.69s6.7-12.58,8.36-15.83c3.08-6.06,42.49-72.96,57.4-96.82,6.21-9.94,36.11-55.26,36.11-55.26" style="fill: none; stroke: #000; stroke-miterlimit: 10;"/>
      <polygon points="199.75 961.09 176.77 938 165.23 926.26 163.38 924.79 151.9 942.61 131.3 974.17 109.53 1007.54 95.42 1030.53 81.2 1054.32 64.98 1081.77 53.36 1101.76 46.55 1114.01 42.76 1121.12 41.46 1125.08 41.65 1127.08 42.95 1129.87 46.5 1133.63 50.53 1136.35 54.08 1138.05 56.03 1138.52 58.81 1138.45 61.51 1136.94 69.14 1128.61 81.79 1113.67 99.27 1092.28 116.57 1070.9 130.11 1053.99 146.41 1033.17 162.47 1011.26 172.17 997.84 182.7 983.74 199.75 961.09"/>
    </g>
  </g>
  <g id="hamster">
    <g id="_hamsterhjul_" data-name="&amp;lt;hamsterhjul&amp;gt;">
      <polygon points="872.03 912.59 865.46 913.22 850.69 918.43 838.94 924.34 832.06 931.06 829.01 931.06 827.27 932.74 825.89 935.34 825.49 938.71 822.91 940.07 816.86 945.41 815.48 949.42 813.95 956.57 814.88 962.36 821.74 973.65 829.6 981.15 841.6 988.34 853.31 995.33 859.15 999.94 865.83 1006.23 871.45 1009.89 878.71 1011.99 888.49 1012.68 895.13 1011.36 899.68 1008.67 905.24 1004.69 930.44 978.29 934.61 973.79 934.27 965.99 935.02 966.26 937.15 968.32 941.54 969.6 946.82 968.67 950.43 965.94 954.24 960.19 956.54 954.45 957.59 947.9 957.85 941.45 960.74 935.56 964.53 925.62 967.82 926.75 972.25 928.11 976.55 927.59 980.28 926.73 982.06 924.43 983.07 921.01 982.59 918.63 980.77 916.77 975.76 914.35 969.59 911 965.76 907.73 962.6 902.32 958.41 893.49 953.28 885.28 945.83 878.27 938.87 872.17 935.33 869.01 934.34 861.63 933.56 856.7 932.62 854.09 929.97 853.04 926.19 852.92 923.54 854.44 921.76 857.25 921.06 861.13 921.59 864.33 923.95 868.6 921.26 870.33 915.27 872.63 905.13 874.74 897.91 876.9 890.02 880.22 884.01 879.39 879.31 879.33 873.3 881.87 868.73 885.65 866.72 888.97 865.35 894.24 866.59 899.98 868.85 906.17 870.69 910.36 872.03 912.59" style="fill: #fff;"/>
      <path d="M857.94,925.78c-2.98,3.29-14.65,8.01-19.09,8.09-1.05.02-4.15-.61-4.15-.61l-2.64-2.21,2.35-3.51,14.39-8.5,16.66-5.84s-1.42,5.84-7.53,12.57Z" style="fill: #fcb547;"/>
      <path d="M932.8,975.7s-8.64,1.84-10.96,2.98c-2.74,1.35-8.09,2.62-13.25,6.78-2.55,2.06-6.51,5.3-8.23,9.86-2.95,7.86-.69,13.34-.69,13.34l6.58-5.44,10.27-10.67,16.27-16.85Z" style="fill: #fcb547;"/>
      <path d="M931.78,899.98s-14.22,16.15-34.04,8.42c-9-3.51-9.67,5.27-17.93,1.87-6.85-2.83-7.21-4.3-8.77-6.66-2.02-3.06-2.61-7.22-2.78-11.79-.1-2.53,1.05-5.02,1.81-6.41.7-1.28,3.83-3.49,3.83-3.49l5.92-2.69,7.28.56,5.19-.56,8.61-3.15,13.08-3.13,7.29-2.62,3.26-1.93-1.85-2.35-1.89-4.79.85-4.23,3.24-3.45,4.53-.87,3.74,1.31,1.08,6.63,1.12,8.34,1.04,2.01,4.21,4.21,3.75,2.5,5.43,4.69,2.61,2.34,3.3,4.77,3.65,6.48,2.58,5.82,2.59,4.32,3.25,3.58,4.66,2.95,7.1,3.6,1.88,1.03,1.16,2.22v2.8l-1.64,3.22-3.65,1.84-4.62.41-2.37-.23-5.73-1.97-1.56,4.23-5.38,12.17-.22,3.99-.34,6.71-1.57,5.42-2.1,3.5s-2.78,2.5-4.23,3.02c-13.08,4.67-21.48-8.27-22.99-16.76-2.83-15.88-6.14-9.5-8.08-27.67-1.12-10.47,13.72-20.26,13.72-20.26Z" style="fill: #fcb547;"/>
      <path d="M948.61,879.83s-12.4,13.49-13.77,16.94c-.54,1.35,1.29,3.09,2.26,3.19,3.47.35,20.96-8.15,20.96-8.15l-9.45-11.97Z" style="fill: #c78d4d;"/>
      <path d="M874.88,916.12s-5.7-9.01-6.26-10.44c-.92-2.35-2.73-7.11-2.96-9.95-.41-5.07,1.65-7.91,2.25-8.94,1.96-3.34,9.2-8.15,14.25-7.66,1.08.1,6.35,1.1,8.42.7,5.61-1.09,9.62-4.81,21.89-6.59,5.68-.82,11.65-4.41,11.65-4.41" style="fill: none; stroke: #000; stroke-linecap: round; stroke-miterlimit: 10; stroke-width: 2px;"/>
      <path d="M832.06,931.06c3.26-4.68,11.63-9.2,15.9-11.22,17.92-8.49,24.84-6.8,24.84-6.8l-2.45-4.24" style="fill: none; stroke: #000; stroke-linecap: round; stroke-miterlimit: 10; stroke-width: 2px;"/>
      <path d="M924.13,868.83s-4.13-5.11-2.64-9.9c.28-.9.98-2.68,1.55-3.43.88-1.15,2.52-2.35,4.26-2.65,1.02-.18,3.22-.16,4.14.32,1.37.71,1.8,1.89,2.12,2.68.46,1.14,1.18,5.26,1.34,6.48.1.78.5,5.72,1.29,7.44.34.75,1.57,1.91,2.17,2.49,3.7,3.57,11.8,8.95,14.93,13.03,7.34,9.56,8.55,16.18,12.02,21.19,1.04,1.5,3.85,3.97,5.39,4.95,1.62,1.03,5.17,2.54,6.89,3.39.98.49,3.03,1.36,3.83,2.09,1.23,1.12,1.67,3,1.64,4.11-.02,1.02-.54,3.14-1.25,3.87-1.16,1.17-1.95,2.14-3.55,2.5-1.07.24-3.02,1.07-6.81.83-1.71-.11-6.57-1.99-6.57-1.99,0,0-4.08,9.68-6.54,15.24-1.38,3.11,1.54,12.34-5.27,21.45-9.77,13.07-18.23,4-18.23,4,0,0,.87,5.4-2.03,8.81-4.52,5.31-24.39,24.41-26.93,27.59-6.69,8.4-15.1,11.3-29.34,8.27-11.77-2.5-14.06-11.02-25.04-17.35-2.77-1.6-19.12-11.33-19.73-12.02-.86-.98-12.78-7.82-17.23-23.44-.7-2.46.68-9.79,1.95-12.02,3.68-6.44,9.82-8.34,9.82-8.34" style="fill: none; stroke: #000; stroke-miterlimit: 10; stroke-width: 2px;"/>
      <path d="M913.4,967.73c-1.61-.94-4.36-3.74-6.49-5.43-1.65-1.32-5.14-3.66-4.69-6.47.22-1.42,2.28-3.69,6.78-3.05,7.37,1.04,13.79,7.48,13.79,7.48" style="fill: none; stroke: #000; stroke-linecap: round; stroke-miterlimit: 10; stroke-width: 2px;"/>
      <path d="M868.72,936.22c4.83,5.69,13.33,13.29,19.76,11.82,1.96-.45,3.19-2.26,1.87-5.82-.77-2.08-7.92-8.68-9.1-10.32" style="fill: none; stroke: #000; stroke-linecap: round; stroke-miterlimit: 10; stroke-width: 2px;"/>
      <path d="M865.46,986.98s1.6-2.83,2.55-4.15c.85-1.18,4.14-5.08,7.5-1.29.69.78.88,2.28.8,3.32-.12,1.51-.16,4.99-5.79,8.02" style="fill: none; stroke: #000; stroke-linecap: round; stroke-miterlimit: 10; stroke-width: 2px;"/>
      <path d="M901.98,891.1c-.18,3.28.92,7,2.17,8.84.87,1.28,3.45,3.24,4.9,3.81,1.68.65,3.91,1.32,7.07,1.32" style="fill: none; stroke: #000; stroke-linecap: round; stroke-miterlimit: 10; stroke-width: 2px;"/>
      <path d="M924.13,912.65c0,1.82,1.32,5.35,2.19,6.96s3.03,4.45,4.47,5.47c1.3.92,5.22,3.54,10.68,2.52" style="fill: none; stroke: #000; stroke-linecap: round; stroke-miterlimit: 10; stroke-width: 2px;"/>
      <line x1="901.98" y1="892.47" x2="898.51" y2="890.66" style="fill: none; stroke: #000; stroke-linecap: round; stroke-miterlimit: 10;"/>
      <line x1="902.13" y1="894.61" x2="898.51" y2="893.86" style="fill: none; stroke: #000; stroke-linecap: round; stroke-miterlimit: 10;"/>
      <line x1="903.26" y1="896.86" x2="898.51" y2="897.2" style="fill: none; stroke: #000; stroke-linecap: round; stroke-miterlimit: 10;"/>
      <line x1="903.87" y1="898.96" x2="899.73" y2="901" style="fill: none; stroke: #000; stroke-linecap: round; stroke-miterlimit: 10;"/>
      <line x1="905.51" y1="901" x2="902.64" y2="904.33" style="fill: none; stroke: #000; stroke-linecap: round; stroke-miterlimit: 10;"/>
      <line x1="907.65" y1="902.66" x2="905.51" y2="906.46" style="fill: none; stroke: #000; stroke-linecap: round; stroke-miterlimit: 10;"/>
      <line x1="910.05" y1="903.94" x2="909.2" y2="908.4" style="fill: none; stroke: #000; stroke-linecap: round; stroke-miterlimit: 10;"/>
      <line x1="912.48" y1="904.39" x2="912.48" y2="909.2" style="fill: none; stroke: #000; stroke-linecap: round; stroke-miterlimit: 10;"/>
      <line x1="914.69" y1="904.8" x2="915.33" y2="908.4" style="fill: none; stroke: #000; stroke-linecap: round; stroke-miterlimit: 10;"/>
      <line x1="924.59" y1="914.11" x2="920.6" y2="913.53" style="fill: none; stroke: #000; stroke-linecap: round; stroke-miterlimit: 10;"/>
      <line x1="925.45" y1="916.85" x2="920" y2="916.85" style="fill: none; stroke: #000; stroke-linecap: round; stroke-miterlimit: 10;"/>
      <line x1="926.14" y1="919.05" x2="921.26" y2="920.93" style="fill: none; stroke: #000; stroke-linecap: round; stroke-miterlimit: 10;"/>
      <line x1="927.65" y1="921.24" x2="923.4" y2="925.06" style="fill: none; stroke: #000; stroke-linecap: round; stroke-miterlimit: 10;"/>
      <line x1="929.43" y1="923.42" x2="926.53" y2="927.99" style="fill: none; stroke: #000; stroke-linecap: round; stroke-miterlimit: 10;"/>
      <line x1="931.78" y1="925.5" x2="930.06" y2="929.53" style="fill: none; stroke: #000; stroke-linecap: round; stroke-miterlimit: 10;"/>
      <line x1="934.3" y1="926.59" x2="933.63" y2="931.19" style="fill: none; stroke: #000; stroke-linecap: round; stroke-miterlimit: 10;"/>
      <line x1="937.26" y1="927.59" x2="937.26" y2="932.13" style="fill: none; stroke: #000; stroke-linecap: round; stroke-miterlimit: 10;"/>
      <line x1="940.39" y1="927.59" x2="940.86" y2="932.13" style="fill: none; stroke: #000; stroke-linecap: round; stroke-miterlimit: 10;"/>
      <polygon points="904.83 922.77 904.26 923.31 904.26 924.74 905.14 926.74 906.67 928.32 908.04 928.74 909.03 928.39 909.49 927.39 909.23 925.21 908.07 923.58 906.13 923.02 904.83 922.77"/>
      <path d="M905.94,919.99c.94,1.06,2.42,3.65,2.42,3.65,0,0,.99,1.94,1.11,2.65.08.48-.09,1.52-.37,1.92-.2.28-.92.55-1.26.53-.58-.03-1.52-.87-1.93-1.28-.62-.62-1.46-2.24-1.63-3.09-.07-.35.12-1.22.45-1.37.88-.38,2,.27,2.45.41s1.5.53,1.5.95" style="fill: none; stroke: #000; stroke-linecap: round; stroke-miterlimit: 10; stroke-width: 2px;"/>
      <path d="M826.31,943.55s-.53-4.95-.41-6.64c.11-1.51.9-6.81,6.16-5.86,1.08.2,2.12,1.31,2.64,2.21.75,1.32,2.44,4.58-1,10.67" style="fill: none; stroke: #000; stroke-linecap: round; stroke-miterlimit: 10; stroke-width: 2px;"/>
      <path d="M872.39,799.71c22.29,8.51,41.61,28.68,53.17,53.89" style="fill: none; stroke: #000; stroke-miterlimit: 10; stroke-width: 3px;"/>
      <path d="M979.41,926.63c-7.11,45.71-40.59,86.1-92.51,86.1s-89.68-47.12-89.68-104.33c0-51.13,32.49-106.22,95.05-112.07" style="fill: none; stroke: #000; stroke-miterlimit: 10; stroke-width: 3px;"/>
      <path d="M980.8,916.39c.77-4.35,1.26-5.33,1.27-8.31.15-57.22-30.5-100.64-88.13-111.49-6.21-1.17-21.65-2.07-28.21-2.07-10.57,0-16.53.43-22.14,1.03,0,0,0,0,0,0-48.73,4.84-84.29,54.55-84.29,109.12s38.86,108.07,115.26,106.9" style="fill: none; stroke: #000; stroke-miterlimit: 10; stroke-width: 3px;"/>
      <line x1="840.96" y1="815.21" x2="799.36" y2="815.44" style="fill: none; stroke: #000; stroke-miterlimit: 10;"/>
      <line x1="821.47" y1="835.44" x2="780.93" y2="834.9" style="fill: none; stroke: #000; stroke-miterlimit: 10;"/>
      <line x1="804.6" y1="866.63" x2="765.83" y2="865.46" style="fill: none; stroke: #000; stroke-miterlimit: 10;"/>
      <line x1="817.5" y1="841.02" x2="777.78" y2="841.02" style="fill: none; stroke: #000; stroke-miterlimit: 10;"/>
      <line x1="802.77" y1="872.05" x2="764.09" y2="871.12" style="fill: none; stroke: #000; stroke-miterlimit: 10;"/>
      <line x1="798.4" y1="891.57" x2="760.3" y2="889.88" style="fill: none; stroke: #000; stroke-miterlimit: 10;"/>
      <line x1="759.76" y1="916" x2="797.64" y2="919.05" style="fill: none; stroke: #000; stroke-miterlimit: 10;"/>
      <line x1="800.14" y1="935.84" x2="761.86" y2="931.92" style="fill: none; stroke: #000; stroke-miterlimit: 10;"/>
      <line x1="811.42" y1="966.24" x2="773.55" y2="960.27" style="fill: none; stroke: #000; stroke-miterlimit: 10;"/>
      <line x1="815.16" y1="972.52" x2="777.85" y2="967.1" style="fill: none; stroke: #000; stroke-miterlimit: 10;"/>
      <line x1="823.58" y1="983.7" x2="787.13" y2="978.62" style="fill: none; stroke: #000; stroke-miterlimit: 10;"/>
      <line x1="830.7" y1="990.98" x2="793.59" y2="984.88" style="fill: none; stroke: #000; stroke-miterlimit: 10;"/>
      <line x1="937" y1="813.75" x2="895.83" y2="813.75" style="fill: none; stroke: #000; stroke-miterlimit: 10;"/>
      <line x1="900.89" y1="818.31" x2="943.24" y2="818.31" style="fill: none; stroke: #000; stroke-miterlimit: 10;"/>
      <line x1="918.89" y1="841.02" x2="964.14" y2="841.02" style="fill: none; stroke: #000; stroke-miterlimit: 10;"/>
      <line x1="922.06" y1="846.57" x2="967.59" y2="846.57" style="fill: none; stroke: #000; stroke-miterlimit: 10;"/>
      <line x1="977.74" y1="870.35" x2="936.19" y2="869.76" style="fill: none; stroke: #000; stroke-miterlimit: 10;"/>
      <line x1="979.46" y1="876.81" x2="943.24" y2="876.35" style="fill: none; stroke: #000; stroke-miterlimit: 10;"/>
      <line x1="982.07" y1="891.57" x2="956.96" y2="890.58" style="fill: none; stroke: #000; stroke-miterlimit: 10;"/>
      <line x1="977.2" y1="939.21" x2="960.08" y2="937.46" style="fill: none; stroke: #000; stroke-miterlimit: 10;"/>
      <line x1="957.59" y1="942.94" x2="976.01" y2="945.17" style="fill: none; stroke: #000; stroke-miterlimit: 10;"/>
      <line x1="966.16" y1="967.46" x2="951.11" y2="965.24" style="fill: none; stroke: #000; stroke-miterlimit: 10;"/>
      <line x1="962.11" y1="973.47" x2="944.55" y2="969.6" style="fill: none; stroke: #000; stroke-miterlimit: 10;"/>
      <line x1="956.84" y1="980.14" x2="932.8" y2="975.7" style="fill: none; stroke: #000; stroke-miterlimit: 10;"/>
      <line x1="927.65" y1="981.18" x2="952.2" y2="985.19" style="fill: none; stroke: #000; stroke-miterlimit: 10;"/>
      <path d="M816.89,1000.16s-21.26,18.75-27.76,25.6c-.64.67-3.51,3.87-1.3,6.12.68.7,2.18,2.07,3.12,2.34,3.25.92,27.1.07,27.1.07" style="fill: none; stroke: #000; stroke-miterlimit: 10; stroke-width: 4px;"/>
      <line x1="826.8" y1="1004.26" x2="792.49" y2="1034.44" style="fill: none; stroke: #000; stroke-miterlimit: 10; stroke-width: 3px;"/>
      <polyline points="804.29 1024.05 930.54 1023.04 914.69 1008.49" style="fill: none; stroke: #000; stroke-miterlimit: 10; stroke-width: 4px;"/>
      <path d="M916.74,1009.4l21.68,20.43s-97.43.26-115.82,1.35c-1.61.1-4.53,1.41-5.66,4.43-1.15,3.05,1.29,7.23,3.26,7.28,20.8.49,102.73-2.44,129.56-3.15,1.18-.03,2.61-2.49,3.09-3.57s1.43-3.06,0-4.72c-4.08-4.74-29.45-26.29-29.45-26.29" style="fill: none; stroke: #000; stroke-miterlimit: 10; stroke-width: 4px;"/>
      <path d="M811.42,815.37c-94.78,71.33-21.85,194.67,31.15,184.69" style="fill: none; stroke: #000; stroke-miterlimit: 10;"/>
      <polygon points="842.4 815.44 797.22 815.21 814.34 804.16 833.13 797.15 850.86 794.08 878.22 795.01 890.56 796.09 873.65 799.71 855.89 806.51 842.4 815.44"/>
      <polygon points="816.84 841.12 822.1 835.44 790.49 834.9 785.63 841.02 816.84 841.12"/>
      <polygon points="763.25 938.07 759.76 919.83 759.42 899.45 761.56 880.94 768.52 857.42 782.17 832 798.01 814.7 811.42 815.37 801.2 823.84 793.99 830.98 789.18 836.29 783.43 843.84 777.78 853.31 773.5 862.15 769.51 873.33 766.72 885.93 765.62 896.62 765.72 908.94 766.7 920.01 769.13 929.98 771.32 937.44 775.43 948.12 780.68 958.61 786.57 967.98 791.72 974.76 798.72 982.39 806.52 989.13 814.77 994.52 823.39 998.36 829.72 1000.02 837.32 1000.62 841.23 1000.06 864.12 1010.7 849.32 1010.7 823.58 1003.05 798.4 989.48 784.23 975.4 771.92 957.3 763.25 938.07"/>
      <polygon points="803.52 866.6 770.7 865.22 769.63 871.18 802.31 872.28 803.52 866.6"/>
      <polygon points="764.58 889.88 798.95 891.57 796.79 907.19 797.04 919.05 763.82 916.3 764.04 898.85 764.58 889.88"/>
      <line x1="801.47" y1="941.3" x2="771.91" y2="938.96" style="fill: none; stroke: #000; stroke-miterlimit: 10;"/>
      <polygon points="800.62 941.3 799.18 935.42 767.55 932.49 769.87 938.96 800.62 941.3"/>
      <polygon points="782.33 961.93 810.41 966.08 814.33 972.4 785 968.13 782.33 961.93"/>
      <polygon points="796.21 979.78 822.44 983.54 829.06 990.25 802.42 986.5 796.21 979.78"/>
      <polygon points="897.2 813.75 937.96 813.75 918.84 803.62 893.96 796.09 873.82 800.28 889.91 809.21 897.2 813.75"/>
      <polygon points="901.86 818.31 912.88 832.04 920.04 841.02 964.71 840.77 950.82 824.96 941.52 818 901.86 818.31"/>
      <polygon points="922.93 846.57 966.78 846.57 971.05 853.09 977.14 870.06 975.99 870.21 936.77 869.56 935.37 865.89 935.68 861.12 934.64 856.21 931.44 853.16 927.71 852.37 925.56 853.15 922.93 846.57"/>
      <line x1="981.1" y1="884.86" x2="952.36" y2="884.2" style="fill: none; stroke: #000; stroke-miterlimit: 10;"/>
      <polygon points="944.05 876.36 980.26 876.81 981.54 884.53 979.83 884.83 952.9 884.21 947.39 879.66 944.05 876.36"/>
      <polygon points="956.65 890.6 958.9 895.1 962.71 903.67 966.05 908.36 969.77 911.41 977.29 915.1 983.25 918.35 982.36 923.98 979.18 927.47 971.21 928.2 968.45 927.74 964.65 926.47 963.87 927.07 959.69 937.46 977.77 939.27 980.28 926.73 981.62 924.79 983.13 917.34 983.86 908.74 983.14 895.17 981.64 891.37 979.85 891.49 966.53 891.07 956.65 890.6"/>
      <polygon points="958.3 942.61 957.87 945.47 958.09 950.89 956.17 958.02 951.85 964.94 953.02 965.52 965.04 967.3 971.59 955.44 975.12 945.06 958.3 942.61"/>
      <line x1="923.4" y1="1005.15" x2="906.58" y2="1001.23"/>
      <line x1="857.53" y1="998.24" x2="832.06" y2="992.42" style="fill: none; stroke: #000; stroke-miterlimit: 10;"/>
      <line x1="901.31" y1="1008.25" x2="909.17" y2="1010.04" style="fill: none; stroke: #000; stroke-miterlimit: 10;"/>
      <path d="M834.82,985.01c-9.36-2.04-8.12-.19-15.37-6.38" style="fill: none; stroke: #000; stroke-miterlimit: 10; stroke-width: 3px;"/>
      <polygon points="826.75 985.45 840 987.89 833.13 983.15 826.75 982.74 826.75 985.45"/>
      <polygon points="950.7 986.18 938.26 996.71 926.49 1003.71 921.95 1005.15 907.09 1001.02 926.67 982.19 928.44 981.31 949.42 984.74 951.12 985.45 950.7 986.18"/>
      <polygon points="958.64 977.11 955.48 979.89 932.39 975.52 934.53 972.23 935.74 967.7 940.38 969.75 945.7 969.6 960.71 973.16 958.64 977.11"/>
      <path d="M887.93,799.71c-88.57,15.73-105.6,117.81-69.67,171.51,11.84,17.7,30.62,31.97,49.17,37.92" style="fill: none; stroke: #000; stroke-miterlimit: 10; stroke-width: 4px;"/>
      <path d="M873.11,844.86s6.96-.23,6.95.18c-.02,1-6.75,7.41-6.75,7.41-.17.19-.08.5.18.55,1.64.33,7.08-.24,7.08-.24" style="fill: none; stroke: #000; stroke-linecap: round; stroke-miterlimit: 10; stroke-width: 2px;"/>
      <path d="M887.42,861.62s5.46-.18,5.46.14c-.02.79-5.3,5.81-5.3,5.81-.14.15-.06.39.14.43,1.28.26,5.55-.19,5.55-.19" style="fill: none; stroke: #000; stroke-linecap: round; stroke-miterlimit: 10; stroke-width: 2px;"/>
      <path d="M884.55,827.53s8.87-.29,8.86.23c-.03,1.28-8.6,9.44-8.6,9.44-.22.24-.1.63.22.7,2.08.42,9.02-.3,9.02-.3" style="fill: none; stroke: #000; stroke-linecap: round; stroke-miterlimit: 10; stroke-width: 2px;"/>
      <polygon points="844.1 995.33 856.32 997.97 864.66 1005.96 850.95 1004.58 844.1 995.33"/>
      <polygon points="907.04 1009.7 901.26 1007.96 898.42 1010.58 899.81 1011.36 904.2 1011.36 907.04 1009.7"/>
      <polygon points="806.25 1023.24 793.99 1033.74 816.65 1034.65 820.52 1030.86 834.37 1030.38 937.53 1029.83 928.21 1021.72 806.25 1023.24"/>
      <path d="M912.03,914.6c-.49.78-.69,1.3-.1,1.96.44.5,1.04.63,2.24.04" style="fill: none; stroke: #000; stroke-linecap: round; stroke-miterlimit: 10;"/>
    </g>
    <g id="_hamster-trut_" data-name="&amp;lt;hamster-trut&amp;gt;">
      <polygon points="830.63 1124.6 831 1129.82 833.53 1135.89 836.95 1140.17 848.88 1149.92 852.02 1151.72 847.35 1155.16 843.51 1158.7 842.34 1161.09 843.75 1163.22 846.89 1164.08 851.29 1163.31 863.39 1157.7 865.78 1156.34 875.29 1158.53 884.58 1160.72 903.02 1161.28 899.5 1163.6 896.69 1166.38 895.77 1169.07 895.94 1171.39 897.4 1172.63 900.41 1172.63 906.45 1170.06 912.4 1166.4 918.76 1161.39 941.3 1161.18 961.35 1159.73 972.97 1158.15 984.66 1155.66 998.24 1151.82 1004.63 1149.74 1004.64 1152.51 1006.91 1155 1010.41 1155.1 1013.94 1153.25 1016.37 1151.05 1017.93 1148.15 1018.71 1145.74 1019.46 1143.5 1028.63 1137.81 1030.99 1136.04 1034.95 1125.66 1035.95 1118.05 1034.57 1106.07 1030.88 1095.27 1025.5 1083.97 1019.72 1075.41 1008.75 1067.73 1000.17 1064.83 989.13 1063.43 978.61 1064.07 967.5 1066.87 958.68 1070.36 943.17 1076.73 933.37 1080.28 929.72 1080.62 916.88 1080.27 898.12 1081.44 896.26 1081.65 894.44 1077.3 891.67 1070.04 886.47 1066.2 880.18 1066.71 876.22 1069.79 873.78 1074.28 874.88 1077.46 878.5 1082.53 883.35 1086.16 878.81 1086.75 872.21 1088.94 866.2 1094.25 861.74 1098.44 856.43 1100.81 848.29 1103.32 843.71 1104.84 838.1 1107.34 834.12 1113.07 831.28 1119.58 830.63 1124.6" style="fill: #fff;"/>
      <path d="M902.49,1105.36s-6.91,8.9-10.12,10.7c-3.37,1.89-8.56,2.61-13.86,3.76-2.23.48-12.31,7.6-15.21,10.8-2.74,3.02-6.23,5.51-10.71,6.49-11.96,2.62-16.31-.22-18.65-3.69-1.08-1.59-2.38-3.42-2.38-3.42l-.65-8.78,2.68-7.17,5.33-6.63,6.93-3.21,7.87-2.45,7.49-3,5-4.52,5.85-4.54,6.91-2.48,4.38-1.07-5.64-4.49-3.37-6.04.37-4.08,3.81-3.47,4.84-1.88h4.21l4.09,3.84,1.84,3.47,1.5,4.8.78,3.41,8.3-.89,16.19-.99,9.45.8,7.73-1.56,14.47-5.92,18.98-7.38,13.48-2.29,10.43.39,7.64,1.54,8.52,3.42,6.38,4.35,4.15,4.21,3.26,4.79,2.79,5.66,3.11,6.92,2.45,5.9s2.36,9.82,2.64,13.17c.38,4.43-.33,12.06-2.75,17.58-1.4,3.18-6.49,8.41-9.49,10.17-1.96,1.14-13.83,6.13-13.83,6.13,0,0-5.34,2.5-14.85,5.21-5.9,1.68-22.97,6.38-45.46,7.83-12.02.77-24.49-.21-32.6-3.54-13.79-5.67-9.26-15.47-13.18-22.12-11.22-19.02-1.1-29.73-1.1-29.73Z" style="fill: #fcb547;"/>
      <path d="M957.55,1070.82s-11.21,5.5-21.18,8.65c-7.65,2.42-22.74.82-22.74.82,0,0-6.41,12.6-7.85,17.15-.57,1.81,1.11,3.16,2.08,3.31,5.6.89,14.33-12.46,25.17-19.56,3.11-2.04,11.53-4.82,13.86-5.61,10.18-3.46,10.66-4.76,10.66-4.76Z" style="fill: #c78d4d;"/>
      <path d="M851.55,1151.73s-12.05-8.47-16.69-14.78c-9.01-12.24-1.18-29.16,8.85-32.11,8.25-2.43,13.74-4.13,17.49-6.07,2.87-1.49,5.39-6.08,10.85-9.06,6.65-3.63,10.33-3.72,10.33-3.72,0,0-10.35-7.62-7.67-13.18,3.57-7.4,11.8-9.05,16.95-2.77,2.5,3.04,4.12,11.68,4.12,11.68,0,0,6.58-.83,11.61-1.15,16.77-1.09,22.07,1.43,28.97-1.09,5.39-1.97,23.51-9.78,30.43-12.35,11.82-4.4,21.89-3.9,26.62-3.42,20.76,2.14,28.68,13.94,30.92,17.73,2.1,3.57,7.31,15.35,8.78,19.22,1.22,3.22,3.69,14.21,2.55,21.66-.47,3.11-2.29,9.92-5.34,13.83-2.14,2.74-11.76,8.61-11.76,8.61,0,0-.36,3.38-1.17,4.81-.71,1.27-2.19,2.98-3.46,3.69-2.3,1.28-3.43,2.45-5.98,1.82-1.22-.3-3-1.35-3.32-2.57-.29-1.12-.42-2.06.4-2.88.75-.75,5.81-2.34,5.81-2.34,0,0-7.45,2.57-10.17,3.66-1.81.73-7.1,2.38-8.98,2.9-3.86,1.07-11.65,2.98-15.58,3.73-5.07.97-15.3,2.49-20.45,2.8-9.95.6-20.49,1.13-23.03,1.14-3.63.01-15.09.2-15.09.2,0,0-1.56,1.97-6.57,5.34-2.16,1.45-7.86,5.85-12.16,5.57-3.99-.26-4.44-5.67.67-9.01.39-.26,3.52-2.32,3.52-2.32,0,0-12.89.05-14.32-.11-2.37-.26-7.08-1.08-9.41-1.58-1.8-.39-7.13-1.87-7.13-1.87l-6.95-.78s-8.21,3.36-10.2,4.33c-3.61,1.78-9.29,3.48-11.27,1.37-2.64-2.8,1.22-5.65,2.47-6.6.85-.64,5.32-4.32,5.32-4.32Z" style="fill: none; stroke: #000; stroke-miterlimit: 10; stroke-width: 2px;"/>
      <path d="M892.37,1124.07c-2.43-3.77-6.41-4.72-8.64-4.78-13.02-.4-15.44,10.64-15.85,13.49-.35,2.47-1.19,8.14,4.74,14.66,2.83,3.11,10.32,5.27,16.83,1.36" style="fill: none; stroke: #000; stroke-linecap: round; stroke-miterlimit: 10; stroke-width: 2px;"/>
      <path d="M887.34,1135.67c-1.56,6.7-3.72,8.29-8.04,7.56-3.27-.55-5.11-4.37-4.45-9.03.86-6.06,3.9-8.27,7.2-8.05,3.78.25,6.36,4.95,5.29,9.52Z"/>
      <path d="M859.39,1104.3c7.93-.53,13.04,1.25,16.41,2.21,4.37,1.25,11.78,5.97,11.78,5.97,0,0-9.65-1.53-14.04-1.62-2.93-.06-7.6-.45-12.92,1.39" style="fill: none; stroke: #000; stroke-linecap: round; stroke-miterlimit: 10; stroke-width: 2px;"/>
      <path d="M934.02,1116.58c-7.45-2.75-12.86-2.49-16.37-2.52-4.54-.04-12.99,2.39-12.99,2.39,0,0,9.69,1.26,13.93,2.41,2.83.77,7.42,1.72,12,4.98" style="fill: none; stroke: #000; stroke-linecap: round; stroke-miterlimit: 10; stroke-width: 2px;"/>
      <path d="M943.17,1095.56c1.43-3.48,2.79-8.25,6.43-10.18,2.42-1.28,5.56-2.51,9.55-.02,2.63,1.65,5.18,5.35,4.87,7.52-.9,6.23-6.1,6.64-10.99,9.83" style="fill: none; stroke: #000; stroke-linecap: round; stroke-miterlimit: 10; stroke-width: 2px;"/>
      <line x1="853.68" y1="1122.31" x2="774.48" y2="1112.67" style="fill: none; stroke: #000; stroke-linecap: round; stroke-miterlimit: 10; stroke-width: 2px;"/>
      <line x1="854.51" y1="1131.11" x2="765.26" y2="1133.62" style="fill: none; stroke: #000; stroke-linecap: round; stroke-miterlimit: 10; stroke-width: 2px;"/>
      <line x1="855.77" y1="1139.49" x2="750.59" y2="1157.51" style="fill: none; stroke: #000; stroke-linecap: round; stroke-miterlimit: 10; stroke-width: 2px;"/>
      <path d="M1026.69,1139.35s-4.16,3.1-6.37,4.14c-3.95,1.87-9.87,3.97-17.05,6.47" style="fill: none; stroke: #000; stroke-miterlimit: 10; stroke-width: 2px;"/>
      <path d="M955.67,1160.38s-17.26,1.05-23.03,1.14c-7.86.12-22.18-.44-31.45-.2-15.81.41-23.18-2.5-29.03-3.59-6.29-1.17-13.05-.58-24.59-8.94" style="fill: none; stroke: #000; stroke-miterlimit: 10; stroke-width: 2px;"/>
    </g>
    <g id="_hamster-skilt_" data-name="&amp;lt;hamster-skilt&amp;gt;">
      <polyline points="608.18 439.3 605 441.02 600.44 442.12 597.21 441.06 596.13 438.91 597.47 436.64 600.48 434.66 596.19 430.84 594.14 426.82 593.53 421.07 594.95 414.56 599.77 404.58 602.04 398.45 597.64 399.69 593.53 399.6 591.17 398.45 590.79 395.96 592.74 393.7 598.01 391.33 602.65 389.87 603.25 385.32 593.27 384.22 586.62 381.84 581.39 376.58 578.74 371.52 578.59 366.55 579.1 362.97 581.91 358.85 584.6 356.81 583.39 349.99 582.66 342.17 584.25 335.17 586.21 329.47 592.37 320.99 585 317.53 581.27 314.01 580.89 310.25 582.7 305.8 584.91 304.46 590.64 305.2 599.43 309.62 602.52 309.62 615.71 305.09 624.94 302.89 635.83 302.78 644.64 303.78 648.97 303.42 655.3 301.27 664.24 295.37 667.96 295.8 670.81 297.71 671.27 299.16 670.98 304.81 669.48 308.87 666.31 312.14 663.28 314.27 666.96 319.77 673.61 332.43 677.43 340.58 679.49 346.58 680.26 355.08 687.01 364.25 693.29 363.61 696.37 364.41 697.5 366.71 696.81 368.71 693.75 371.51 689.61 373.89 696.63 396.01 700.54 411.88 701.61 421.54 701.88 431.05 700 436.65 696 441.84 698.79 442.83 700.06 445.28 698.98 448.12 696.38 449.12 692.91 448.41 688.08 444.95 683.42 446.32 674.58 447.17 660.78 445.74 645.1 442.22 636.46 441.06 628.62 443.01 613.07 440.51 608.18 439.3" style="fill: #fff;"/>
      <path d="M593.47,378.49c7.37-2.21,10.17-13.29,13.99-17.36,5.06-5.39,8.19-8.71,8.19-8.71,0,0,.36,4.08,12.29,8.74,4.77,1.86,8.35,3.68,12.29,6.02,8.88,5.27,19.54,5.06,24.94,4.4,3.88-.47,8.84-2.47,10.68-5.02,5.09-7.04,4.38-11.11,4.6-12.81.33-2.49-1.52-8.66-1.52-8.66l-3.05-7.42-4.89-10.75-6.14-10.64-.57-2.46,3.79-3.32,2.67-4.24,1.08-6.51-3.21-3.68-3.81-.77-3.39,1.6-5.7,3.25-6.75,3.25-5.87.63-10.39-1.71-11.19.46-10.11,2.86-10.92,4-3.86-1.3-7.68-3.17-4.04-.73-2.61,2.35-1.5,3.07.57,2.23,1.2,3.2,2.66,2.46,6.19,3.22-1.43,2.47-3.78,6.03-2.97,7.8-.78,6.6.11,7.79,1.46,5.44-2.93,2.43-2.75,4.74-.13,5.3s1.04,4.39,2.04,5.44c5.71,6,10.51,4.3,13.22,3.49Z" style="fill: #fcb547;"/>
      <path d="M690.59,376.87s-3.38,8.43-4.2,11.89c-1.81,7.58-.3,18.08.62,22.34.81,3.73,4.62,10.62,7.02,13.58,1.78,2.2,7.34,8.85,7.34,8.85l-.1-16.18-4.64-21.33-6.04-19.15Z" style="fill: #fcb547;"/>
      <path d="M593.79,423.08s2.35-2.08,3.09-2.82c1.16-1.17,4.03-4.23,5.25-6.17.89-1.41,2.24-6,2.24-6l-4.22-3.67-2.63,4.64-3.19,8.4-.54,5.62Z" style="fill: #fcb547;"/>
      <path d="M618.8,303.21s.29,8.32.61,9.77c.3,1.37,2.95,1.58,3.76,1.05,1.63-1.07,7.11-11.37,7.11-11.37l-11.48.54Z" style="fill: #c78d4d;"/>
      <path d="M628.73,324.25l5.97,2.15,3.02,3.11,1.48,5.46-.94,7.07-2.86,6.74-3.7,4.85-4.38,3.39-4.72.88-4.24-1.38-3.84-3.24-1.89,2.76-2.98,3.13-2.27.82-2.91-.02-3.75-2.63-1.48-3.64-.55-5.21.84-6.38,2.89-6.79,4.04-5.1,3.92-2.06s1.99,4.62,3.43,5.24c.84.37,3.63-.63,3.63-.63l4.09-2.17,7.21-6.36Z" style="fill: #fff;"/>
      <path d="M689.67,374.07s3.64,10.95,4.88,15.02,3.54,11.69,4.48,15.65c.63,2.66,1.79,8.02,2.07,10.74.23,2.29.81,9.17.78,11.47-.07,5.2.16,7.56-3.79,12.32-.94,1.14-4.04,4.1-13.4,6.72" style="fill: none; stroke: #000; stroke-linecap: round; stroke-miterlimit: 10; stroke-width: 2px;"/>
      <path d="M694.8,441.38s2.71,1.02,3.53,1.52c1.43.87,1.87,3.07.9,4.37-2.09,2.8-4.36,1.96-6.59.71-1.58-.89-4.1-3.07-4.1-3.07,0,0-3.73,1.06-4.63,1.29-1.05.27-3.19.71-4.27.81-1.79.16-5.41.22-7.2.1-3.19-.21-9.55-.95-12.69-1.54-2.61-.5-7.74-1.96-10.35-2.5-2.76-.57-8.32-1.69-11.14-1.75-.92-.02-2.76.19-3.66.35-1.28.22-3.79,1.03-5.09,1.1-2.42.13-7.24-.75-9.63-1.17-2.52-.45-7.65-.9-9.96-2.01-.37-.18-1.72-.51-1.72-.51,0,0-.84.71-1.32.94s-2.3,1.07-2.82,1.16c-.78.13-4.75,1.83-6.96-.46-1.87-1.94.52-3.95,1.12-4.34.79-.52,2.32-1.43,2.32-1.43,0,0-2.68-2.24-3.56-3.14-1.22-1.25-2.81-3.85-3.06-5.98-.24-2.07-.1-6.3.39-8.33.53-2.18,2.2-6.39,3.19-8.4.59-1.2,1.78-3.62,2.63-4.64.51-.61,2.01-1.4,2.43-2.08.53-.88.7-4.05.7-4.05,0,0-2.44,1-3.3,1.13-1.11.17-7.12,1.04-8.49-.81s.35-4.03,1.26-4.91c.74-.73,6.22-2.69,8.42-3.16.69-.15,2.79-.32,2.79-.32l-3.07-4.67" style="fill: none; stroke: #000; stroke-miterlimit: 10; stroke-width: 2px;"/>
      <path d="M603.25,385.84s-4.58-.48-6.09-.74c-2.49-.43-7.17-1.6-9.63-3.03-3.52-2.06-6.72-6.01-7.28-7.06-1.84-3.41-2.75-10.21.28-14.28.65-.87,3.5-3.63,3.5-3.63,0,0-.75-3.51-.93-4.69-.33-2.11-.75-6.4-.63-8.53.14-2.41,1.35-7.12,1.99-9.45.56-2.03,2.05-6,3.12-7.81,1.18-1.99,5.88-7.14,5.88-7.14" style="fill: none; stroke: #000; stroke-linecap: round; stroke-miterlimit: 10; stroke-width: 2px;"/>
      <path d="M591.91,321.21s-3.82-1.83-5.04-2.52c-.84-.47-2.57-1.39-3.26-2.07s-1.87-2.19-2.13-3.1c-.34-1.21-.48-3.84-.06-5.02.35-.98,1.5-2.89,2.42-3.38.75-.4,2.55-.56,3.39-.42,1.21.19,5.11,1.71,6.24,2.2.72.31,5.15,2.54,7.03,2.75.82.09,2.45-.35,3.25-.57,4.97-1.32,13.77-5.46,18.88-6.02,11.98-1.33,18.27,1.06,24.35.69,1.83-.11,5.39-1.24,7.03-2.05,1.72-.86,4.85-3.11,6.47-4.14.92-.58,2.7-2,3.77-2.19s3.43.13,4.37.72c.86.54,2.41,2.09,2.66,3.07.41,1.6-.28,4.97-.8,6.54-.35,1.05-1.07,3.17-1.73,4.05-1.02,1.38-5.11,4.59-5.11,4.59,0,0,2.53,4.05,3.32,5.43,1.7,2.95,5.08,8.88,6.5,11.98,1.69,3.67,4.55,9.42,5.47,13.36.48,2.03.48,7.6,1.33,9.97.77,2.16,5.03,7.69,5.03,7.69l.72,1.29" style="fill: none; stroke: #000; stroke-miterlimit: 10; stroke-width: 2px;"/>
      <path d="M674.4,353.49c5.69,7.17,3.14,22.83-13.73,22.35" style="fill: none; stroke: #000; stroke-linecap: round; stroke-miterlimit: 10; stroke-width: 2px;"/>
      <path d="M627.37,373.24c.26-1.31-1.19-3.93-2.11-4.9-.84-.89-3.75-4.06-8.49-3.79-1.06.06-4.16,1.64-3.94,6.92.04,1.06-.09,3.33.52,4.19,1.76,2.49,5.94,1.79,7.38,1.59s5.93-.52,6.63-4.01Z" style="stroke: #000; stroke-miterlimit: 10;"/>
      <path d="M605.29,324.68s2.86,1.35,3.63,2.06c.86.79,1.92,2.96,2.65,3.88.64.81,2,2.55,2.99,2.84.61.18,2.02.05,2.52-.34.39-.3.72-1.64.72-1.64,0,0,.63.39,1.27.37.45-.01,1.32-.4,1.7-.65.89-.61,2.49-2.07,3.25-2.84.96-.96,2.68-3.09,3.71-3.97.88-.75,2.83-2.02,3.86-2.54.88-.44,3.63-1.5,3.63-1.5" style="fill: none; stroke: #000; stroke-linecap: round; stroke-miterlimit: 10; stroke-width: 2px;"/>
      <path d="M617.68,325.54s-.49,4.07-.54,4.44c-.14,1.11.8,1.71.8,1.71,0,0-1.64,3.46-1.96,4.38-1.45,4.21-1.66,6.95-1.82,9.32-.07,1.01-.02,3.05.14,4.06.14.9.49,2.7.89,3.51.28.58,1,1.67,1.5,2.08,2.97,2.43,5.74,2.21,7.44,2.11,3.53-.21,5.71-2.02,7.02-3.47,1.19-1.32,4.94-5.09,6.88-12.45.37-1.41.65-4.34.71-5.8.2-5.5-3.15-8.43-4.05-9.03s-4.71-2.71-6.97-2.01" style="fill: none; stroke: #000; stroke-linecap: round; stroke-miterlimit: 10; stroke-width: 2px;"/>
      <path d="M614.51,352.78s-.97,1.27-1.29,1.69c-.64.85-1.93,2.58-2.74,3.27-.95.81-4.02,3.48-8.24.19-2.67-2.09-2.81-7.66-2.82-9-.01-1.79.46-5.36.86-7.1,1.28-5.52,5.78-11.87,9.99-13.09" style="fill: none; stroke: #000; stroke-miterlimit: 10; stroke-width: 2px;"/>
      <path d="M617.08,343.86c-2.33,4.81-1.84,10.3,1.73,11.97,4.88,2.27,8.95,1.38,11.27-3.43,2.33-4.81,1.84-12.92-1.81-14.41-5.42-2.22-8.87,1.07-11.2,5.88Z"/>
      <path d="M614.93,351.9c-.68,3.07-7.04,8.91-9.79,7.74-3.43-1.46-3.99-2.66-4.31-5.05s.19-4.32.4-5.65c.68-4.41,4.31-8.35,7.39-8.37s4.69,1.44,5.55,3.45c0,0-.13,2.26.08,3.45.26,1.53.95,3.23.69,4.42Z"/>
      <path d="M676.93,378.16s3.84-.66,5.02-.95c1.67-.41,5.7-2.08,7.17-2.96,2.42-1.44,7.06-3.56,7.72-6.35.06-.24,1.35-3.27-2.68-4.23-1.51-.36-10.38,1.09-11.79,1.2-1.15.08-2.58.04-2.58.04" style="fill: none; stroke: #000; stroke-linecap: round; stroke-miterlimit: 10; stroke-width: 2px;"/>
      <polygon points="416.01 124.39 546.22 70.44 616.24 248.99 485.96 299.49 416.01 124.39" style="fill: #fff7e4; stroke: #000; stroke-miterlimit: 10; stroke-width: 3px;"/>
      <polygon points="469.23 102.33 464.73 91.56 474.22 87.33 478.4 97.79 469.23 102.33" style="stroke: #000; stroke-miterlimit: 10; stroke-width: 3px;"/>
      <path d="M591.59,385.03l18.1,39.11,9.77-4.67-11.87-21.97-5.74-11.23s-1.69-.19-4.3-.08c-.75.03-5.97-1.17-5.97-1.17Z" style="stroke: #000; stroke-miterlimit: 10; stroke-width: 3px;"/>
      <path d="M551.93,273.92s30.79,65.17,30.41,67.07c-.41,2.06-.72,3.97-.65,6.05.09,2.71,1.16,9.67,1.16,9.67l-2.7,3.09-37.32-82.36,9.1-3.53Z" style="stroke: #000; stroke-miterlimit: 10; stroke-width: 3px;"/>
      <path d="M611.15,440.03c-4.16-1.44-5.86-2.57-7.54-3.42-2.06-1.05-4.53-2.99-4.53-2.99" style="fill: none; stroke: #000; stroke-linecap: round; stroke-miterlimit: 10; stroke-width: 2px;"/>
      <text transform="translate(452.49 166.9) rotate(-21.24)" style="font-family: ADLaMDisplay-Regular, &apos;ADLaM Display&apos;; font-size: 20.97px;"><tspan x="0" y="0">H</tspan></text>
      <text transform="translate(467.4 161.1) rotate(-21.24)" style="font-family: ADLaMDisplay-Regular, &apos;ADLaM Display&apos;; font-size: 20.97px;"><tspan x="0" y="0">A</tspan></text>
      <text transform="translate(481.07 155.78) rotate(-21.24)" style="font-family: ADLaMDisplay-Regular, &apos;ADLaM Display&apos;; font-size: 20.97px;"><tspan x="0" y="0">M</tspan></text>
      <text transform="translate(499.51 148.61) rotate(-21.25)" style="font-family: ADLaMDisplay-Regular, &apos;ADLaM Display&apos;; font-size: 20.97px;"><tspan x="0" y="0">S</tspan></text>
      <text transform="translate(510.63 144.29) rotate(-21.25)" style="font-family: ADLaMDisplay-Regular, &apos;ADLaM Display&apos;; font-size: 20.97px;"><tspan x="0" y="0">T</tspan></text>
      <text transform="translate(522.48 139.68) rotate(-21.25)" style="font-family: ADLaMDisplay-Regular, &apos;ADLaM Display&apos;; font-size: 20.97px;"><tspan x="0" y="0">E</tspan><tspan x="11.45" y="0">R</tspan></text>
      <text transform="translate(545.44 130.76) rotate(-21.25)" style="font-family: ADLaMDisplay-Regular, &apos;ADLaM Display&apos;; font-size: 20.97px;"><tspan x="0" y="0">-</tspan></text>
      <text transform="translate(461.52 187.2) rotate(-21.24)" style="font-family: ADLaMDisplay-Regular, &apos;ADLaM Display&apos;; font-size: 20.97px;"><tspan x="0" y="0">H</tspan></text>
      <text transform="translate(476.4 181.42) rotate(-21.24)" style="font-family: ADLaMDisplay-Regular, &apos;ADLaM Display&apos;; font-size: 20.97px;"><tspan x="0" y="0">J</tspan></text>
      <text transform="translate(483.21 178.77) rotate(-21.25)" style="font-family: ADLaMDisplay-Regular, &apos;ADLaM Display&apos;; font-size: 20.97px;"><tspan x="0" y="0">U</tspan></text>
      <text transform="translate(497.36 173.27) rotate(-21.24)" style="font-family: ADLaMDisplay-Regular, &apos;ADLaM Display&apos;; font-size: 20.97px;"><tspan x="0" y="0">L</tspan></text>
      <text transform="translate(507.31 169.4) rotate(-21.25)" style="font-family: ADLaMDisplay-Regular, &apos;ADLaM Display&apos;; font-size: 20.97px;"><tspan x="0" y="0"> </tspan></text>
      <text transform="translate(512.71 167.3) rotate(-21.24)" style="font-family: ADLaMDisplay-Regular, &apos;ADLaM Display&apos;; font-size: 20.97px;"><tspan x="0" y="0">?</tspan></text>
      <text transform="translate(478.97 238.88) rotate(-21.24)" style="font-family: ADLaMDisplay-Regular, &apos;ADLaM Display&apos;; font-size: 28.15px;"><tspan x="0" y="0">N</tspan></text>
      <text transform="translate(499.58 230.86) rotate(-21.25)" style="font-family: ADLaMDisplay-Regular, &apos;ADLaM Display&apos;; font-size: 28.15px;"><tspan x="0" y="0">E</tspan></text>
      <text transform="translate(514.31 225.14) rotate(-21.24)" style="font-family: ADLaMDisplay-Regular, &apos;ADLaM Display&apos;; font-size: 28.15px;"><tspan x="0" y="0">J</tspan></text>
      <text transform="translate(523.45 221.58) rotate(-21.25)" style="font-family: ADLaMDisplay-Regular, &apos;ADLaM Display&apos;; font-size: 28.15px;"><tspan x="0" y="0"> </tspan></text>
      <text transform="translate(530.69 218.77) rotate(-21.25)" style="font-family: ADLaMDisplay-Regular, &apos;ADLaM Display&apos;; font-size: 28.15px;"><tspan x="0" y="0">T</tspan></text>
      <text transform="translate(544.25 213.5) rotate(-21.25)" style="font-family: ADLaMDisplay-Regular, &apos;ADLaM Display&apos;; font-size: 28.15px;"><tspan x="0" y="0">A</tspan></text>
      <text transform="translate(562.59 206.37) rotate(-21.24)" style="font-family: ADLaMDisplay-Regular, &apos;ADLaM Display&apos;; font-size: 28.15px;"><tspan x="0" y="0">K</tspan></text>
      <path d="M613.58,359.66c.26.89.51,1.38,1.4,1.38.67,0,1.16-.36,1.51-1.65" style="fill: none; stroke: #000; stroke-linecap: round; stroke-miterlimit: 10;"/>
    </g>
    <g id="_hamster_" data-name="&amp;lt;hamster&amp;gt;">
      <polyline points="688.58 1044.78 687.92 1049.51 683.65 1055.59 681.47 1061.04 679.49 1068.69 681.02 1075.95 684.75 1081.74 690.99 1087.42 687.09 1090.38 686.17 1092.12 686.63 1093.8 688.83 1095.09 693.46 1093.94 700.26 1090.19 709.41 1091.82 720.36 1091.81 738.85 1090.43 749.58 1089.98 756.74 1091.07 762.97 1092.62 768.61 1093.01 777.43 1092.67 785.72 1091.13 790.89 1089.42 793.87 1090.45 797.37 1091.35 800.48 1091.35 803.46 1090.28 803.72 1088.57 802.71 1086.16 798.56 1083.14 801.43 1080.02 802.78 1075.48 803.93 1069.61 804.03 1063.01 803.56 1053.83 802.31 1044.2 800.08 1032.8 796.91 1021.28 792.8 1009.72 787.94 997.45 784.31 989.58 783.72 982.52 780.49 973.59 774.64 966.73 778.95 963.15 781.63 959.51 781.34 954.11 778.83 950.15 775.36 948.47 763.33 948.91 754.52 947.69 740.54 945.32 725.55 944.16 716.82 945.77 705.24 949.38 694.71 954.9 688.94 959.51 683.66 966.58 676.35 972.27 667.95 975.74 663.83 977.39 662.94 980.19 664.12 982.97 666.16 985.44 669.2 986.98 673.49 987.33 676.36 986.92 678.23 986.81 677.95 997.6 678.7 1006.55 680.4 1013.42 678.16 1022.48 677.21 1030.1 677.44 1035 679.7 1038.6 683.72 1043.02 688.58 1044.78" style="fill: #fff;"/>
      <path d="M687.31,1050s2.46,5.99,2.96,8.08c.79,3.3,1.67,10.09,1.58,13.49-.1,3.73-1.97,14.81-1.97,14.81l-7.04-7.04-2.53-7.06-.11-6.19,1.04-5.8,3.62-7.09,2.44-3.2Z" style="fill: #fcb547;"/>
      <path d="M801.09,1080.02s-5.26-7.71-6.39-10.59c-1.68-4.29-2.82-13.66-2.54-18.26.25-4.06,1.93-12.48,2.92-16.43.64-2.54,3-9.62,3-9.62l4.23,19.07,1.71,16.09-.72,12.7-2.22,7.04Z" style="fill: #fcb547;"/>
      <path d="M688.2,1044.12c-2.43.55-5.3-2.5-7.99-4.89-3.88-3.45-4.57-10.45-.58-21.56,1.98-5.51-1.36-15.4-1.36-15.4l-.38-11.04.29-3.88h-5.23s-5.44-.78-6.79-1.9c-1.08-.89-2.47-5.02-2.47-5.02l.85-3.09,8.13-3.07,8.53-4.64,10.42-12.9,9.62-5.33s12.31-4.73,16.55-5.88c7.1-1.92,14.38-.87,14.38-.87l13.82,1.34,16.13,3.12s10.05-1.54,13.24-.64c1.68.47,5.76,3.93,5.76,3.93,0,0,.77,5.16.33,6.81-.3,1.13-2.51,3.94-2.51,3.94l-4.83,2.88,4.14,4.7,5.28,8.82.61,6.51s2.96,9.33,3.26,16.12c.13,2.79-.51,7.45-.67,9.28-.58,6.85-3.66,9.53-6.53,11.03-2.61,1.36-5.64,2.82-11.89,2.41-9.2-.62-9.6-6.31-24.86-7.98-19.23-2.11-18.33-15.54-18.33-15.54,0,0,6.9,11.36-3.48,16.92-25.46,13.64-11.82,20.97-33.46,25.82Z" style="fill: #fcb547;"/>
      <path d="M705.21,949.01s9.37,35.04,15.36,40.55c.72.66,3.34.21,3.86-.62,3.87-6.19,1.13-44.79,1.13-44.79l-20.34,4.86Z" style="fill: #c78d4d;"/>
      <path d="M716.54,1040.67s-7.31,2.35-9.74,3.16c-2.23.74-6.73,2.29-9.07,2.43-3.28.2-9.9-1.39-12.83-2.88-2.34-1.19-6.06-5.33-7.08-7.74-1.13-2.7-.48-8.83,0-11.73.4-2.42,2.41-7.06,2.43-9.51.02-1.58-1.08-4.63-1.33-6.2-.57-3.62-1.11-10.94-1.11-14.6,0-4.91,1.14-14.8,2.66-19.47,1.63-5,7.62-14.19,11.73-17.48,6.58-5.26,23.03-11.45,31.42-12.17,7.2-.62,21.64,1.66,28.76,2.88,2.44.42,7.27,1.56,9.73,1.74,2.86.21,8.62-.66,11.48-.41,1.26.11,3.79.4,5.23,1.46.92.67,1.99,2.39,2.36,3.46,1.02,2.97.66,5.06,0,6.56s-2.5,3.51-4.18,4.99c-.95.84-3.53,2.63-6.69,3.83-.84.32-2.59.77-3.49.82s-3.69,0-3.69,0" style="fill: none; stroke: #000; stroke-linecap: round; stroke-miterlimit: 10; stroke-width: 2px;"/>
      <path d="M774.11,966.02s5.22,5.69,6.38,7.57,2.64,6.14,3.11,8.31c.36,1.63.37,5,.78,6.62.45,1.79,2.04,5.15,2.73,6.86,1.87,4.7,5.65,14.09,7.4,18.83.87,2.36,2.46,7.13,3.18,9.53,1.07,3.59,2.89,10.86,3.63,14.52.91,4.49,2.1,13.59,2.5,18.16.32,3.62.42,10.92,0,14.52-.27,2.35-1.65,6.97-2.72,9.08-1.17,2.29-4.71,6.22-6.81,7.72-2.22,1.59-7.58,3.14-10.21,3.86-1.77.49-5.43.95-7.26,1.13-3.27.33-9.9.43-13.16,0-2.72-.36-7.95-2.13-10.67-2.5-2.98-.41-9.02-.37-12.03-.23-3.87.19-11.56,1.33-15.43,1.59s-12.09.39-16.11.23c-2.23-.09-6.68-.63-8.85-1.13-2.8-.65-8.22-2.81-10.67-4.31-2.12-1.3-5.68-4.95-7.04-7.04-1.39-2.14-2.79-7.21-2.95-9.76-.19-3.02,1.54-9.01,2.72-11.8.67-1.59,2.82-4.34,3.68-5.83.57-.97,1.63-3.04,1.71-4.16.06-.78.17-3.68.17-3.68" style="fill: none; stroke: #000; stroke-miterlimit: 10; stroke-width: 2px;"/>
      <path d="M685.19,964.99s-3.84,4.06-5.29,5.22c-1.19.95-3.75,2.67-5.14,3.3-1.63.74-5.13,1.6-6.81,2.24-.88.33-2.76.92-3.41,1.6-1.52,1.59-1.88,3.59.11,6.49.6.87,2.22,2.37,3.19,2.77,1.2.49,3.82.78,5.11.75.86-.03,2.65-.02,3.41-.43.48-.26,2.01-1.36,2.27-3.47" style="fill: none; stroke: #000; stroke-miterlimit: 10; stroke-width: 2px;"/>
      <path d="M721.66,1057.87s3.06,7.4,6.61,8.93c4,1.72,5.62-.73,5.56-2.84-.04-1.6-.51-4.21-1.05-5.72-.4-1.12-2-5.03-2-5.03" style="fill: none; stroke: #000; stroke-linecap: round; stroke-miterlimit: 10; stroke-width: 2px;"/>
      <path d="M754.16,1050s-7.51,13.15-4.07,15.6c3.17,2.26,6.8-2.97,8.12-4.44s5.13-6.15,5.13-6.15" style="fill: none; stroke: #000; stroke-linecap: round; stroke-miterlimit: 10; stroke-width: 2px;"/>
      <path d="M691.49,1087.02s-2.27,1.76-2.97,2.42c-.51.47-3.47,2.56-1.89,4.36.73.82,2.06.82,2.87.82,1.9,0,5.2-1.51,6.25-2.1,1.84-1.03,3.85-2.08,3.85-2.08" style="fill: none; stroke: #000; stroke-miterlimit: 10; stroke-width: 2px;"/>
      <path d="M790.15,1089.7s3.37.59,4.65,1c1.57.51,6.05,1.15,7.55,0,.67-.52,1.55-1.75.87-3.29-.5-1.13-2.45-2.97-3.63-3.34-.62-.19-1.38-.09-1.38-.09" style="fill: none; stroke: #000; stroke-miterlimit: 10; stroke-width: 2px;"/>
      <path d="M778.35,988.54c2.24,2.44,4.63,6.22,5.76,8.54.88,1.83,1.85,5.81,2.23,7.8.51,2.69,2.99,13.45-7.06,19.5-2.08,1.25-6.73,2.83-9.1,3.34-6,1.3-14.39,1.46-18.01.19" style="fill: none; stroke: #000; stroke-linecap: round; stroke-miterlimit: 10; stroke-width: 2px;"/>
      <path d="M760.04,1001.37c-9.07.77-12.88,3.24-15.49,4.49-2.62,1.25-8.08,5.04-8.08,5.04,0,0,8.51-1.12,11.79-1.33,3.25-.2,11.79.05,11.79.05" style="fill: none; stroke: #000; stroke-linecap: round; stroke-miterlimit: 10; stroke-width: 2px;"/>
      <path d="M699.05,1011.25c5.33-.32,8.46-.14,11.41,0,3.26.16,10.16,1.29,10.16,1.29,0,0-7.9,3.21-11.69,4.48-2.4.8-9.88,3.03-9.88,3.03" style="fill: none; stroke: #000; stroke-linecap: round; stroke-miterlimit: 10; stroke-width: 2px;"/>
      <path d="M712.53,1026.53s3.82,2.53,5.28,2.49c2.21-.07,5.6-3.81,7.77-4.25s6.25,2.23,8.41,2.12c2.33-.11,6.02-3.76,8.29-4.32,1.9-.47,7.77,1.03,7.77,1.03" style="fill: none; stroke: #000; stroke-linecap: round; stroke-miterlimit: 10; stroke-width: 2px;"/>
      <path d="M727.99,1018.04c.37.85.69,1.3,1.57,1.19.67-.09,1.1-.5,1.29-1.82" style="fill: none; stroke: #000; stroke-linecap: round; stroke-miterlimit: 10;"/>
    </g>
  </g>
</svg>